<?xml version="1.0" encoding="UTF-8" standalone="no"?>
<!DOCTYPE svg PUBLIC "-//W3C//DTD SVG 1.1//EN" "http://www.w3.org/Graphics/SVG/1.1/DTD/svg11.dtd">
<svg width="100%" height="100%" viewBox="0 0 842 176" version="1.1" xmlns="http://www.w3.org/2000/svg" xmlns:xlink="http://www.w3.org/1999/xlink" xml:space="preserve" xmlns:serif="http://www.serif.com/" style="fill-rule:evenodd;clip-rule:evenodd;stroke-linejoin:round;stroke-miterlimit:2;">
    <g id="Layer-1" serif:id="Layer 1">
        <g transform="matrix(1,0,0,1,0,141.359)">
            <path d="M23.203,8.56L23.203,7.253L9.911,7.253L9.911,27.135L11.359,27.135L11.359,18.359L21.954,18.359L21.954,17.052L11.359,17.052L11.359,8.56L23.203,8.56ZM41.012,27.135L53.907,27.135L53.907,25.829L42.46,25.829L42.46,7.253L41.012,7.253L41.012,27.135ZM70.806,27.135L72.255,27.135L72.255,7.253L70.806,7.253L70.806,27.135ZM107.134,24.125C105.515,25.431 103.583,25.942 101.481,25.942C96.312,25.942 92.478,22.165 92.478,17.194C92.478,12.195 96.312,8.446 101.481,8.446C103.896,8.446 105.969,9.1 107.702,10.804L108.611,9.838C106.85,8.02 104.322,7.111 101.453,7.111C95.432,7.111 91.029,11.4 91.029,17.194C91.029,22.988 95.432,27.277 101.425,27.277C104.151,27.277 106.736,26.425 108.525,24.721L108.525,17.279L107.134,17.279L107.134,24.125ZM142.808,7.253L142.808,16.399L129.515,16.399L129.515,7.253L128.066,7.253L128.066,27.135L129.515,27.135L129.515,17.677L142.808,17.677L142.808,27.135L144.256,27.135L144.256,7.253L142.808,7.253ZM168.171,27.135L169.62,27.135L169.62,8.56L176.777,8.56L176.777,7.253L161.014,7.253L161.014,8.56L168.171,8.56L168.171,27.135ZM206.799,27.135L208.247,27.135L208.247,8.56L215.405,8.56L215.405,7.253L199.641,7.253L199.641,8.56L206.799,8.56L206.799,27.135ZM233.611,25.829L233.611,17.677L244.206,17.677L244.206,16.399L233.611,16.399L233.611,8.56L245.455,8.56L245.455,7.253L232.163,7.253L232.163,27.135L245.881,27.135L245.881,25.829L233.611,25.829ZM272.466,27.277C275.278,27.277 277.806,26.34 279.539,24.494L278.63,23.557C276.925,25.232 274.852,25.942 272.523,25.942C267.439,25.942 263.605,22.193 263.605,17.194C263.605,12.195 267.439,8.446 272.523,8.446C274.852,8.446 276.925,9.128 278.63,10.804L279.539,9.866C277.806,8.02 275.278,7.111 272.466,7.111C266.559,7.111 262.156,11.4 262.156,17.194C262.156,22.988 266.559,27.277 272.466,27.277ZM312.315,7.253L312.315,16.399L299.023,16.399L299.023,7.253L297.574,7.253L297.574,27.135L299.023,27.135L299.023,17.677L312.315,17.677L312.315,27.135L313.764,27.135L313.764,7.253L312.315,7.253ZM348.614,7.253L348.614,24.522L335.094,7.253L333.873,7.253L333.873,27.135L335.321,27.135L335.321,9.866L348.87,27.135L350.063,27.135L350.063,7.253L348.614,7.253ZM378.891,27.277C384.799,27.277 389.23,22.988 389.23,17.194C389.23,11.4 384.799,7.111 378.891,7.111C372.955,7.111 368.553,11.428 368.553,17.194C368.553,22.96 372.955,27.277 378.891,27.277ZM378.891,25.942C373.807,25.942 370.001,22.222 370.001,17.194C370.001,12.167 373.807,8.446 378.891,8.446C383.947,8.446 387.753,12.167 387.753,17.194C387.753,22.222 383.947,25.942 378.891,25.942ZM407.72,27.135L420.615,27.135L420.615,25.829L409.169,25.829L409.169,7.253L407.72,7.253L407.72,27.135ZM445.098,27.277C451.006,27.277 455.437,22.988 455.437,17.194C455.437,11.4 451.006,7.111 445.098,7.111C439.162,7.111 434.76,11.428 434.76,17.194C434.76,22.96 439.162,27.277 445.098,27.277ZM445.098,25.942C440.014,25.942 436.208,22.222 436.208,17.194C436.208,12.167 440.014,8.446 445.098,8.446C450.154,8.446 453.96,12.167 453.96,17.194C453.96,22.222 450.154,25.942 445.098,25.942ZM488.697,24.125C487.077,25.431 485.146,25.942 483.044,25.942C477.875,25.942 474.041,22.165 474.041,17.194C474.041,12.195 477.875,8.446 483.044,8.446C485.459,8.446 487.532,9.1 489.265,10.804L490.173,9.838C488.413,8.02 485.885,7.111 483.016,7.111C476.995,7.111 472.592,11.4 472.592,17.194C472.592,22.988 476.995,27.277 482.988,27.277C485.714,27.277 488.299,26.425 490.088,24.721L490.088,17.279L488.697,17.279L488.697,24.125ZM509.629,27.135L511.078,27.135L511.078,7.253L509.629,7.253L509.629,27.135ZM532.636,25.829L532.636,17.677L543.23,17.677L543.23,16.399L532.636,16.399L532.636,8.56L544.48,8.56L544.48,7.253L531.187,7.253L531.187,27.135L544.906,27.135L544.906,25.829L532.636,25.829ZM568.878,27.277C573.791,27.277 576.035,24.835 576.035,22.023C576.035,14.809 563.623,18.33 563.623,12.366C563.623,10.179 565.356,8.389 569.218,8.389C571.008,8.389 573.025,8.929 574.672,10.065L575.211,8.901C573.678,7.793 571.406,7.111 569.218,7.111C564.333,7.111 562.175,9.582 562.175,12.394C562.175,19.722 574.587,16.143 574.587,22.108C574.587,24.267 572.826,25.999 568.849,25.999C566.179,25.999 563.651,24.92 562.288,23.5L561.635,24.579C563.083,26.169 565.924,27.277 568.878,27.277" style="fill:rgb(61,163,255);fill-rule:nonzero;"/>
        </g>
        <g transform="matrix(1,0,0,1,0,-0.4298)">
            <path d="M798.522,167.696L785.736,165.367C781.47,164.624 777.232,163.721 772.986,162.867L760.257,160.274L747.585,157.412C743.365,156.435 739.127,155.564 734.935,154.467C711.568,148.905 688.375,142.632 665.357,135.773C662.415,134.895 659.363,134.443 656.291,134.443L640.038,134.443C639.146,134.443 638.965,135.705 639.822,135.955L645.208,137.529C649.384,138.745 653.549,140.004 657.766,141.082L682.998,147.766L708.388,153.803C712.608,154.851 716.883,155.675 721.131,156.6L733.893,159.301C738.14,160.232 742.435,160.937 746.705,161.748L759.53,164.109L772.402,166.198C776.691,166.899 780.981,167.586 785.295,168.124C800.021,170.213 809.112,171.32 822.309,171.958C822.7,171.977 822.757,171.401 822.37,171.349C816.121,170.518 806.715,169.185 798.522,167.696ZM52.756,52.366C53.964,51.34 55.21,50.357 56.442,49.355C63.356,43.893 70.769,39.076 78.426,34.681C93.862,26.098 110.423,19.556 127.455,14.775C144.513,10.042 162.051,7.157 179.666,5.583C181.87,5.381 184.071,5.14 186.276,4.97L192.903,4.655L199.532,4.357L202.847,4.208L206.163,4.209L219.431,4.218C220.537,4.2 221.641,4.242 222.744,4.3L226.056,4.448L232.679,4.745L239.306,5.043C241.512,5.169 243.708,5.41 245.91,5.589L259.118,6.751C263.512,7.207 267.878,7.886 272.259,8.446L278.827,9.33C279.921,9.482 281.018,9.612 282.109,9.782L285.37,10.354L298.417,12.64C300.589,13.03 302.77,13.382 304.936,13.805L311.407,15.196C320.03,17.069 328.695,18.792 337.21,21.098C367.633,28.744 400.73,39.684 430.344,50.787C431.195,51.106 430.966,52.366 430.057,52.366L411.165,52.366C407.609,52.366 404.084,51.766 400.725,50.599C379.763,43.314 355.802,35.789 334.856,30.314C301.201,21.483 266.872,14.981 232.206,12.563C214.885,11.115 197.486,11.197 180.163,12.137C162.84,13.134 145.567,15.463 128.687,19.537C111.791,23.54 92.302,30.726 79.734,37.131C67.165,43.536 52.756,52.366 52.756,52.366ZM300.811,81.686L300.811,102.967C300.791,104.215 300.728,105.393 300.618,106.496C300.618,106.928 300.532,107.309 300.368,107.644C300.233,107.882 300.07,108.102 299.883,108.299C299.118,109.017 297.755,109.377 295.788,109.377L265.141,109.377C264.207,109.377 263.442,109.208 262.84,108.876C262.378,108.593 261.989,108.204 261.706,107.741C261.373,107.139 261.204,106.375 261.204,105.44L261.204,81.322C261.204,79.707 262.346,78.347 263.861,78.005C264.191,77.951 264.548,77.92 264.939,77.92L297.409,77.92C297.565,77.92 297.717,77.934 297.867,77.954C299.068,78.118 300.074,78.911 300.537,79.99C300.713,80.399 300.811,81.213 300.811,81.686ZM307.338,64.386L255.224,64.386C248.231,64.633 244.724,68.367 244.724,75.606L244.724,111.488C244.724,118.714 247.984,122.326 254.506,122.326L306.423,122.326C307.613,122.326 308.871,122.259 310.197,122.124C314.276,121.763 317.057,117.483 317.057,112.503L317.057,74.592C317.057,72.67 316.786,71.141 316.245,70.005C314.65,66.486 311.68,64.612 307.338,64.386ZM463.854,81.686L463.854,102.967C463.833,104.215 463.77,105.393 463.659,106.496C463.659,106.928 463.574,107.309 463.41,107.644C463.275,107.882 463.112,108.102 462.925,108.299C462.16,109.017 460.796,109.377 458.829,109.377L428.183,109.377C427.249,109.377 426.484,109.208 425.882,108.876C425.42,108.593 425.03,108.204 424.748,107.741C424.415,107.139 424.246,106.375 424.246,105.44L424.246,81.322C424.246,79.707 425.387,78.347 426.903,78.005C427.233,77.951 427.589,77.92 427.98,77.92L460.45,77.92C460.607,77.92 460.759,77.934 460.908,77.954C462.109,78.118 463.115,78.911 463.579,79.99C463.755,80.399 463.854,81.213 463.854,81.686ZM470.379,64.386L418.266,64.386C411.273,64.633 407.765,68.367 407.765,75.606L407.765,111.488C407.765,118.714 411.026,122.326 417.548,122.326L469.464,122.326C470.655,122.326 471.913,122.259 473.239,122.124C477.318,121.763 480.099,117.483 480.099,112.503L480.099,74.592C480.099,72.67 479.828,71.141 479.287,70.005C477.692,66.486 474.722,64.612 470.379,64.386ZM610.142,109.377C609.207,109.377 608.443,109.208 607.841,108.876C607.379,108.593 606.99,108.204 606.706,107.741C606.374,107.139 606.204,106.375 606.204,105.44L606.204,81.322C606.204,79.706 607.346,78.347 608.862,78.005C609.191,77.951 609.547,77.92 609.939,77.92L642.41,77.92C642.565,77.92 642.717,77.934 642.867,77.955C644.067,78.118 645.075,78.911 645.538,79.99C645.714,80.399 645.812,81.213 645.812,81.686L645.812,102.966C645.791,104.214 645.728,105.393 645.618,106.496C645.618,106.928 645.532,107.309 645.369,107.644C645.234,107.882 645.07,108.102 644.884,108.299C644.118,109.017 642.755,109.377 640.788,109.377L610.142,109.377ZM651.423,122.326C652.613,122.326 653.871,122.259 655.197,122.123C659.277,121.763 662.057,117.483 662.057,112.503L662.057,74.591C662.057,72.67 661.787,71.141 661.246,70.005C659.65,66.486 656.681,64.612 652.338,64.386L600.225,64.386C593.232,64.633 589.724,68.367 589.724,75.606L589.724,111.488C589.724,118.714 592.986,122.326 599.507,122.326L651.423,122.326ZM162.981,64.581C162.968,64.576 162.955,64.571 162.94,64.567C162.891,64.547 162.838,64.536 162.788,64.519C162.428,64.432 162.014,64.386 161.539,64.386L158.046,64.386C157.154,64.386 156.247,64.43 155.329,64.566C150.967,65.383 147.9,68.949 147.9,72.44L147.9,104.953C147.9,105.333 147.869,105.679 147.813,106.001C147.502,107.364 146.366,108.42 144.963,108.614C144.773,108.634 144.577,108.647 144.369,108.647L112.31,108.647C110.611,108.613 109.209,107.319 109.004,105.664C108.987,105.464 108.977,105.254 108.976,105.033C108.976,105.006 108.974,104.981 108.974,104.953L108.974,76.225C108.974,73.633 108.702,72.17 108.162,70.572C106.565,66.433 103.386,64.387 98.624,64.386L94.64,64.386C94.577,64.386 94.518,64.4 94.457,64.405C93.709,64.462 93.05,64.853 92.643,65.439C92.629,65.463 92.613,65.484 92.599,65.509C92.58,65.54 92.565,65.575 92.546,65.608C92.338,65.965 92.21,66.375 92.21,66.816L92.21,110.514C92.21,114.006 92.707,115.807 93.737,117.692C95.894,121.003 98.839,122.529 103.819,122.529L156.222,122.529C161.65,122.529 164.462,117.104 164.462,112.178L164.462,66.816C164.462,65.816 163.849,64.953 162.981,64.581ZM685.818,122.528L738.221,122.528C743.649,122.528 746.461,117.104 746.461,112.178L746.461,66.816C746.461,65.816 745.848,64.953 744.98,64.581C744.965,64.576 744.953,64.572 744.938,64.567C744.889,64.547 744.836,64.536 744.786,64.519C744.428,64.431 744.013,64.386 743.538,64.386L740.044,64.386C739.152,64.386 738.246,64.43 737.327,64.565C732.966,65.383 729.899,68.949 729.899,72.44L729.899,104.953C729.899,105.332 729.867,105.679 729.812,106.001C729.5,107.364 728.364,108.42 726.962,108.614C726.772,108.633 726.576,108.647 726.367,108.647L694.31,108.647C692.61,108.613 691.207,107.319 691.003,105.664C690.986,105.464 690.976,105.254 690.974,105.033C690.974,105.006 690.973,104.981 690.973,104.953L690.973,75.952C690.973,73.674 690.701,72.17 690.16,70.571C688.564,66.433 685.385,64.386 680.622,64.386L676.639,64.386C676.576,64.386 676.516,64.4 676.456,64.405C675.707,64.462 675.049,64.853 674.642,65.439C674.628,65.463 674.611,65.484 674.598,65.509C674.578,65.54 674.563,65.575 674.544,65.607C674.337,65.965 674.208,66.375 674.208,66.816L674.208,110.514C674.208,114.006 674.705,115.806 675.735,117.692C677.892,121.003 680.838,122.528 685.818,122.528ZM237.567,64.584C237.333,64.482 237.069,64.418 236.78,64.386L236.777,64.386C236.648,64.372 236.515,64.362 236.375,64.362L180.685,64.362C180.476,64.362 180.268,64.378 180.06,64.386L180.055,64.386C179.371,64.411 178.688,64.462 178.006,64.566C173.333,65.768 170.537,69.044 170.537,72.643L170.537,76.377C170.537,77.623 171.092,78.244 172.201,78.244L192.253,78.244C194.877,78.244 196.191,79.137 196.191,80.923L196.191,120.458C196.191,121.838 197.3,122.528 199.519,122.528L209.869,122.528C211.925,122.528 212.954,121.704 212.954,120.053L212.954,81.127C212.954,79.205 214.131,78.244 216.486,78.244L228.704,78.244C230.299,78.244 232.745,77.428 234.305,76.377C237.201,74.212 238.648,71.656 238.648,68.705L238.648,66.643C238.648,65.52 238.239,64.877 237.567,64.584ZM393.098,64.484L390.747,64.484C388.039,64.484 385.209,65.106 382.667,66.351C380.312,67.705 379.135,70.559 379.135,74.916L379.135,94.359C379.135,94.488 379.127,94.603 379.119,94.721C379.119,94.738 379.119,94.756 379.117,94.772C379.115,94.863 379.106,94.952 379.09,95.039C379.087,95.059 379.085,95.08 379.081,95.102C378.912,95.888 378.215,96.479 377.378,96.479C377.06,96.479 376.765,96.388 376.509,96.24C376.419,96.18 376.329,96.115 376.239,96.042C376.182,95.993 376.126,95.943 376.076,95.887C375.115,94.924 374.115,93.914 373.08,92.861C367.765,87.451 361.491,80.85 354.253,73.049C349.436,67.339 346.026,64.484 344.024,64.484L331.724,64.484C330.047,64.484 329.208,65.106 329.208,66.351L329.208,120.864C329.208,121.784 329.953,122.529 330.872,122.529L343.653,122.529C344.199,122.529 345.992,122.529 345.992,121.338C345.992,118.695 345.803,115.84 345.932,110.839L345.932,93.216C345.933,92.254 346.647,91.528 347.61,91.528C348.242,91.528 348.847,91.9 349.252,92.296C350.023,93.005 351.054,94.001 352.348,95.288C353.536,96.469 354.938,97.886 356.566,99.555C365.145,108.971 370.719,114.885 373.29,117.292C376.158,120.785 378.309,122.529 379.744,122.529L393.747,122.529C394.992,122.529 395.614,121.758 395.614,120.215L395.614,67.61C395.614,65.526 394.776,64.484 393.098,64.484ZM572.935,64.386L572.933,64.386C572.819,64.372 572.703,64.362 572.579,64.362L563.811,64.362C563.419,64.362 563.027,64.37 562.639,64.386L562.629,64.386C559.622,64.51 556.826,65.178 555.45,67.488C552.098,73.36 547.137,82.663 540.572,95.389C540.511,95.508 540.452,95.62 540.391,95.739C538.844,99.028 537.46,101.74 536.412,103.495C536.388,103.534 536.363,103.576 536.34,103.615C536.025,104.066 535.503,104.363 534.911,104.363C534.32,104.363 533.798,104.066 533.483,103.615C533.46,103.576 533.435,103.534 533.412,103.495C532.363,101.74 530.979,99.028 529.433,95.739C529.372,95.62 529.313,95.508 529.252,95.389C522.686,82.663 517.725,73.36 514.374,67.488C512.997,65.178 510.201,64.51 507.194,64.386L507.185,64.386C506.796,64.37 506.405,64.362 506.012,64.362L497.244,64.362C497.121,64.362 497.005,64.372 496.891,64.386L496.888,64.386C495.448,64.568 494.727,65.884 494.727,68.341L492.251,120.818C492.221,121.456 492.559,122.072 493.135,122.347C493.391,122.468 493.637,122.529 493.875,122.529L507.067,122.529C508.312,122.529 508.741,121.426 508.935,117.292L509.394,108.027L509.805,99.326C509.854,98.392 510.671,97.812 511.506,97.812C512.223,97.812 512.772,98.222 513.133,98.84C513.711,99.85 514.403,101.251 515.225,103.086C516.108,104.781 516.982,106.424 517.847,108.027C519.663,111.386 521.441,114.546 523.182,117.496C525.163,120.871 526.64,122.529 528.047,122.529L541.777,122.529C543.184,122.529 544.66,120.871 546.642,117.496C548.382,114.546 550.161,111.386 551.976,108.027C552.841,106.424 553.715,104.781 554.597,103.086C555.42,101.251 556.112,99.85 556.691,98.84C557.051,98.222 557.6,97.812 558.317,97.812C559.152,97.812 559.969,98.392 560.018,99.326L560.428,108.027L560.889,117.292C561.082,121.426 561.511,122.529 562.755,122.529L575.948,122.529C576.186,122.529 576.432,122.468 576.688,122.347C577.264,122.072 577.602,121.456 577.572,120.818L575.096,68.341C575.096,65.884 574.375,64.568 572.935,64.386ZM760.681,78.407L795.42,78.407L795.42,78.406C799.173,78.404 808.551,78.407 819.122,78.407C820.186,78.407 821.216,77.864 821.81,77.595C825.788,75.808 827.777,72.574 827.777,67.893L827.777,67.487C827.777,65.531 827.161,64.506 825.945,64.386L768.172,64.386C766.956,64.386 765.75,64.644 764.642,65.145C764.62,65.155 764.599,65.165 764.578,65.174C760.6,66.961 758.611,70.194 758.611,74.875L758.611,75.282C758.611,77.366 759.301,78.407 760.681,78.407ZM766.867,99.433L809.349,99.433C811.405,99.433 812.434,100.949 812.434,103.979L812.434,104.182C812.434,107.213 811.474,108.728 809.552,108.728L770.991,108.728C767.825,108.728 765.281,109.689 763.36,111.61C761.72,113.134 760.884,115.318 760.884,119.241L760.884,120.054C760.884,121.704 761.912,122.529 763.968,122.529L818.848,122.529C822.555,122.529 825.025,122.337 826.98,120.292C828.924,118.146 829.361,116.549 829.361,112.625L829.361,96.348C829.361,92.776 829.295,89.928 827.778,88.227C825.477,85.629 823.542,86.038 821.324,86.038L760.884,86.038C759.368,86.038 758.611,86.782 758.611,88.271L758.611,89.326C758.611,92.086 759.301,94.277 760.681,95.902C762.683,98.256 764.68,99.433 766.867,99.433ZM85.908,119.911C85.901,119.9 85.895,119.888 85.888,119.877C79.419,107.293 74.982,98.905 72.574,94.71C64.293,78.691 59.636,70.025 58.854,68.569C57.267,65.612 55.638,64.735 53.766,64.483C53.178,64.405 52.567,64.386 51.924,64.386L44.086,64.386C43.487,64.386 42.9,64.405 42.329,64.483C41.436,64.606 40.579,64.88 39.77,65.484C39.485,65.696 39.207,65.946 38.934,66.248C38.751,66.476 38.567,66.707 38.386,66.939C38.296,67.066 38.206,67.196 38.117,67.337C38.021,67.49 37.925,67.645 37.83,67.814L9.729,120.028C9.731,120.031 9.733,120.032 9.735,120.034L9.736,120.033C9.627,120.263 9.561,120.517 9.561,120.788C9.561,121.726 10.293,122.487 11.216,122.546C11.254,122.548 11.291,122.557 11.33,122.557C11.357,122.557 11.382,122.55 11.408,122.549C11.516,122.551 11.615,122.556 11.728,122.556L23.552,122.552C25.861,122.552 27.38,119.919 28.33,118.01L42.483,90.792L45.206,85.552C45.598,84.86 45.929,84.337 46.202,83.924C46.564,83.358 47.084,82.994 47.772,82.994C48.489,82.994 49.023,83.351 49.414,83.993C49.744,84.494 50.115,85.149 50.574,86.024C51.711,88.212 52.695,90.112 53.529,91.733C54.669,93.948 55.529,95.637 56.104,96.794C56.289,97.166 56.448,97.49 56.575,97.752C56.575,97.752 56.85,98.383 57.177,99.11C57.179,99.116 57.181,99.121 57.184,99.127C57.272,99.337 57.321,99.567 57.321,99.809C57.321,100.724 56.623,101.468 55.731,101.56C55.574,101.58 55.574,101.58 55.395,101.58L53.446,101.583C52.628,101.583 51.899,101.63 51.316,101.863C48.874,102.837 46.848,104.883 44.644,109.909C44.64,109.919 44.636,109.928 44.631,109.938C44.545,110.146 44.496,110.375 44.496,110.614C44.496,111.592 45.288,112.384 46.265,112.384C46.306,112.384 46.346,112.375 46.387,112.372L62.833,112.611C64.489,112.611 65.281,114.127 66.77,117.157C67.547,119.038 69.299,122.552 71.456,122.552C73.433,122.552 74.978,122.556 77.769,122.556L84.021,122.556C84.157,122.556 84.286,122.553 84.408,122.548C85.721,122.496 86.561,121.052 85.908,119.911" style="fill:rgb(3,3,46);fill-rule:nonzero;"/>
        </g>
    </g>
</svg>
