<?xml version="1.0" encoding="UTF-8" standalone="no"?>
<!DOCTYPE svg PUBLIC "-//W3C//DTD SVG 1.1//EN" "http://www.w3.org/Graphics/SVG/1.1/DTD/svg11.dtd">
<svg width="100%" height="100%" viewBox="0 0 940 934" version="1.1" xmlns="http://www.w3.org/2000/svg" xmlns:xlink="http://www.w3.org/1999/xlink" xml:space="preserve" xmlns:serif="http://www.serif.com/" style="fill-rule:evenodd;clip-rule:evenodd;stroke-linejoin:bevel;">
    <g transform="matrix(1,0,0,1,-70.1874,-73.2293)">
        <g transform="matrix(1.81433,0,0,1.81433,-1073.25,1981.1)">
            <g transform="matrix(1.68503,0,0,1.66931,-26.2146,-2737.44)">
                <circle cx="543.245" cy="1164.05" r="153.546" style="fill:white;"/>
            </g>
            <g id="current" transform="matrix(0.736951,0,0,0.736951,641.403,-1020.13)">
                <path id="building" d="M130.814,454.749L126.391,448.088L119.694,435.311L112.996,422.533L109.309,413.295L105.622,404.056L106.919,403.624L108.216,403.191L108.216,379.014L98.068,379.014L97.371,374.662L96.673,370.31L95.917,366.539L95.161,362.767L149.994,362.767L149.994,347.681L143.031,347.681L143.031,338.397L149.994,338.397L149.994,269.927L143.258,269.927L141.984,266.272L140.71,262.617L140.71,260.643L156.957,260.643L156.957,235.112L149.994,235.112L149.994,224.667L143.436,224.667L141.058,222.056L138.679,219.445L137.374,216.91L136.068,214.375L136.068,208.413L331.323,208.707L526.578,209L526.34,212.334L526.102,215.667L523.439,219.644L520.776,223.621L517.584,224.289L514.393,224.957L514.393,235.112L506.269,235.112L506.269,260.643L520.444,260.643L519.734,262.491L519.025,264.34L518.324,267.133L517.623,269.927L510.911,269.927L510.911,338.397L520.195,338.397L520.195,347.681L510.911,347.681L510.911,362.767L565.455,362.767L565.232,366.829L563.891,372.631L562.549,378.434L557.619,378.791L552.689,379.148L552.689,403.191L553.979,403.621L555.269,404.051L550.988,414.453L546.707,424.854L541.216,435.299L535.724,445.743L530.589,453.577L525.454,461.41L135.236,461.41L130.814,454.749ZM175.526,444.002L175.526,413.696L165.081,413.696L165.081,444.002L175.526,444.002ZM191.773,444.002L191.773,413.696L181.328,413.696L181.328,444.002L191.773,444.002ZM208.02,444.002L208.02,413.696L197.575,413.696L197.575,444.002L208.02,444.002ZM224.267,444.002L224.267,413.696L213.822,413.696L213.822,444.002L224.267,444.002ZM239.934,444.002L239.934,413.696L230.069,413.696L230.069,444.002L239.934,444.002ZM256.181,444.002L256.181,413.696L246.316,413.696L246.316,444.002L256.181,444.002ZM271.847,444.002L271.847,413.696L262.563,413.696L262.563,444.002L271.847,444.002ZM288.094,444.002L288.094,413.696L278.81,413.696L278.81,444.002L288.094,444.002ZM304.342,444.003L304.342,413.696L294.477,413.696L294.477,444.003L304.342,444.003ZM320.589,444.002L320.589,413.696L310.144,413.696L310.144,444.002L320.589,444.002ZM336.836,444.002L336.836,413.696L326.391,413.696L326.391,444.002L336.836,444.002ZM353.083,444.002L353.083,413.696L342.638,413.696L342.638,444.002L353.083,444.002ZM369.33,444.002L369.33,413.696L358.885,413.696L358.885,444.002L369.33,444.002ZM385.577,444.002L385.577,413.696L375.132,413.696L375.132,444.002L385.577,444.002ZM401.244,444.002L401.244,413.696L391.379,413.696L391.379,444.002L401.244,444.002ZM417.491,444.002L417.491,413.696L407.626,413.696L407.626,444.002L417.491,444.002ZM433.158,444.002L433.158,413.696L423.874,413.696L423.874,444.002L433.158,444.002ZM449.405,444.002L449.405,413.696L440.121,413.696L440.121,444.002L449.405,444.002ZM465.652,444.003L465.652,413.696L455.138,413.696L455.138,444.003L465.652,444.003ZM481.899,444.003L481.899,413.696L471.385,413.696L471.385,444.003L481.899,444.003ZM498.146,444.002L498.146,413.696L487.701,413.696L487.701,444.002L498.146,444.002ZM163.34,402.224L163.34,395.114L155.797,395.114L155.797,402.224L163.34,402.224ZM176.686,402.224L176.686,395.114L169.723,395.114L169.723,402.224L176.686,402.224ZM190.612,402.224L190.612,395.114L183.649,395.114L183.649,402.224L190.612,402.224ZM299.7,402.371L299.7,395.114L292.737,395.114L292.737,402.371L299.7,402.371ZM313.626,402.371L313.626,395.114L306.663,395.114L306.663,402.371L313.626,402.371ZM327.552,402.371L327.552,395.114L319.274,395.114L319.274,402.371L327.552,402.371ZM340.897,402.371L340.897,395.114L333.354,395.114L333.354,402.371L340.897,402.371ZM354.243,402.371L354.243,395.114L347.28,395.114L347.28,402.371L354.243,402.371ZM368.169,402.371L368.169,395.114L361.206,395.114L361.206,402.371L368.169,402.371ZM382.095,402.371L382.095,395.114L373.724,395.114L373.724,402.371L382.095,402.371ZM396.021,402.371L396.021,395.114L387.898,395.114L387.898,402.371L396.021,402.371ZM409.367,402.371L409.367,395.114L401.824,395.114L401.824,402.371L409.367,402.371ZM422.713,402.371L422.713,395.114L415.75,395.114L415.75,402.371L422.713,402.371ZM436.639,402.371L436.639,395.114L429.676,395.114L429.676,402.371L436.639,402.371ZM450.565,402.371L450.565,395.114L442.287,395.114L442.287,402.371L450.565,402.371ZM463.911,402.371L463.911,395.114L456.368,395.114L456.368,402.371L463.911,402.371ZM477.257,402.224L477.257,395.114L470.294,395.114L470.294,402.224L477.257,402.224ZM491.183,402.224L491.183,395.114L484.22,395.114L484.22,402.224L491.183,402.224ZM505.109,402.224L505.109,395.114L496.831,395.114L496.831,402.224L505.109,402.224ZM123.303,396.422L123.303,375.393L115.179,375.393L115.179,396.422L123.303,396.422ZM137.809,396.422L137.809,375.393L125.624,375.393L125.624,396.422L137.809,396.422ZM146.803,395.582L143.031,395.114L143.031,385.977L149.414,385.977L149.414,375.393L140.71,375.393L140.71,396.422L145.643,396.236L150.575,396.05L146.803,395.582ZM520.195,396.422L520.195,375.386L510.778,375.386L510.778,385.977L519.035,385.977L519.035,395.121L514.683,395.576L510.331,396.032L520.195,396.422ZM535.282,396.422L535.282,375.386L522.516,375.386L522.516,396.422L535.282,396.422ZM545.146,396.422L545.146,375.386L537.603,375.386L537.603,396.422L545.146,396.422ZM278.81,389.459L278.81,361.607L204.538,361.607L204.538,389.459L278.81,389.459ZM163.34,385.977L163.34,347.681L155.797,347.681L155.797,385.977L163.34,385.977ZM176.686,385.977L176.686,347.681L169.723,347.681L169.723,385.977L176.686,385.977ZM190.612,385.977L190.612,347.681L183.649,347.681L183.649,385.977L190.612,385.977ZM299.7,385.977L299.7,347.681L292.737,347.681L292.737,385.977L299.7,385.977ZM313.626,385.977L313.626,347.681L306.663,347.681L306.663,385.977L313.626,385.977ZM327.552,385.977L327.552,347.681L319.274,347.681L319.274,385.977L327.552,385.977ZM340.897,385.977L340.897,347.681L333.354,347.681L333.354,385.977L340.897,385.977ZM354.243,385.977L354.243,347.681L347.28,347.681L347.28,385.977L354.243,385.977ZM368.169,385.977L368.169,347.681L361.206,347.681L361.206,385.977L368.169,385.977ZM382.095,385.977L382.095,347.681L373.724,347.681L373.724,385.977L382.095,385.977ZM396.021,385.977L396.021,347.681L387.898,347.681L387.898,385.977L396.021,385.977ZM409.367,385.977L409.367,347.681L401.824,347.681L401.824,385.977L409.367,385.977ZM422.713,385.977L422.713,347.681L415.75,347.681L415.75,385.977L422.713,385.977ZM436.639,385.977L436.639,347.681L429.676,347.681L429.676,385.977L436.639,385.977ZM450.565,385.977L450.565,347.681L442.287,347.681L442.287,385.977L450.565,385.977ZM463.911,385.977L463.911,347.681L456.368,347.681L456.368,385.977L463.911,385.977ZM477.257,385.977L477.257,347.681L470.294,347.681L470.294,385.977L477.257,385.977ZM491.183,385.977L491.183,347.534L484.22,347.534L484.22,385.977L491.183,385.977ZM505.109,385.977L505.109,347.534L496.831,347.534L496.831,385.977L505.109,385.977ZM204.538,356.384L204.538,347.681L196.275,347.681L196.275,356.384L204.538,356.384ZM218.464,356.384L218.464,347.681L210.341,347.681L210.341,356.384L218.464,356.384ZM231.81,356.384L231.81,347.681L224.267,347.681L224.267,356.384L231.81,356.384ZM245.156,356.384L245.156,347.681L238.193,347.681L238.193,356.384L245.156,356.384ZM259.082,356.384L259.082,347.681L250.958,347.681L250.958,356.384L259.082,356.384ZM273.008,356.384L273.008,347.681L264.884,347.681L264.884,356.384L273.008,356.384ZM286.354,356.384L286.354,347.681L278.81,347.681L278.81,356.384L286.354,356.384ZM163.34,338.397L163.34,320.989L155.797,320.989L155.797,338.397L163.34,338.397ZM176.686,338.397L176.686,320.989L169.723,320.989L169.723,338.397L176.686,338.397ZM190.612,338.397L190.612,320.989L183.649,320.989L183.649,338.397L190.612,338.397ZM204.538,338.397L204.538,320.989L196.275,320.989L196.275,338.397L204.538,338.397ZM218.464,338.397L218.464,320.989L210.341,320.989L210.341,338.397L218.464,338.397ZM232.39,329.693L232.39,320.989L224.267,320.989L224.267,338.397L232.39,338.397L232.39,329.693ZM245.156,338.397L245.156,320.989L238.193,320.989L238.193,338.397L245.156,338.397ZM259.082,338.397L259.082,320.989L250.958,320.989L250.958,338.397L259.082,338.397ZM273.008,338.397L273.008,320.989L264.884,320.989L264.884,338.397L273.008,338.397ZM286.354,338.397L286.354,320.989L278.81,320.989L278.81,338.397L286.354,338.397ZM299.7,338.397L299.7,320.989L292.737,320.989L292.737,338.397L299.7,338.397ZM313.626,338.397L313.626,320.989L306.663,320.989L306.663,338.397L313.626,338.397ZM327.552,338.397L327.552,320.989L319.274,320.989L319.274,338.397L327.552,338.397ZM340.897,338.397L340.897,320.989L333.354,320.989L333.354,338.397L340.897,338.397ZM354.243,338.397L354.243,320.989L347.28,320.989L347.28,338.397L354.243,338.397ZM368.169,338.397L368.169,320.989L361.206,320.989L361.206,338.397L368.169,338.397ZM382.095,338.397L382.095,320.989L373.724,320.989L373.724,338.397L382.095,338.397ZM396.021,338.397L396.021,320.989L387.898,320.989L387.898,338.397L396.021,338.397ZM409.367,338.397L409.367,320.989L401.824,320.989L401.824,338.397L409.367,338.397ZM422.713,338.397L422.713,320.989L415.75,320.989L415.75,338.397L422.713,338.397ZM436.639,338.397L436.639,320.989L429.676,320.989L429.676,338.397L436.639,338.397ZM450.565,338.397L450.565,320.989L442.287,320.989L442.287,338.397L450.565,338.397ZM463.911,338.397L463.911,320.989L456.368,320.989L456.368,338.397L463.911,338.397ZM477.257,338.397L477.257,320.989L470.294,320.989L470.294,338.397L477.257,338.397ZM491.183,338.397L491.183,320.989L484.22,320.989L484.22,338.397L491.183,338.397ZM505.109,338.397L505.109,320.989L496.831,320.989L496.831,338.397L505.109,338.397ZM163.34,311.705L163.34,307.063L155.797,307.063L155.797,311.705L163.34,311.705ZM176.686,311.705L176.686,307.063L169.723,307.063L169.723,311.705L176.686,311.705ZM190.612,311.705L190.612,307.063L183.649,307.063L183.649,311.705L190.612,311.705ZM204.538,311.705L204.538,307.063L196.275,307.063L196.275,311.705L204.538,311.705ZM218.464,311.705L218.464,307.063L210.341,307.063L210.341,311.705L218.464,311.705ZM232.39,311.705L232.39,307.063L224.267,307.063L224.267,311.705L232.39,311.705ZM245.156,311.705L245.156,307.063L238.193,307.063L238.193,311.705L245.156,311.705ZM259.082,311.705L259.082,307.063L250.958,307.063L250.958,311.705L259.082,311.705ZM273.008,311.705L273.008,307.063L264.884,307.063L264.884,311.705L273.008,311.705ZM286.354,311.705L286.354,307.063L278.81,307.063L278.81,311.705L286.354,311.705ZM299.7,311.705L299.7,307.063L292.737,307.063L292.737,311.705L299.7,311.705ZM313.626,311.705L313.626,307.063L306.663,307.063L306.663,311.705L313.626,311.705ZM327.552,311.705L327.552,307.063L319.274,307.063L319.274,311.705L327.552,311.705ZM340.897,311.705L340.897,307.063L333.354,307.063L333.354,311.705L340.897,311.705ZM354.243,311.705L354.243,307.063L347.28,307.063L347.28,311.705L354.243,311.705ZM368.169,311.705L368.169,307.063L361.206,307.063L361.206,311.705L368.169,311.705ZM382.095,311.705L382.095,307.063L373.724,307.063L373.724,311.705L382.095,311.705ZM396.021,311.705L396.021,307.063L387.898,307.063L387.898,311.705L396.021,311.705ZM409.367,311.705L409.367,307.063L401.824,307.063L401.824,311.705L409.367,311.705ZM422.713,311.705L422.713,307.063L415.75,307.063L415.75,311.705L422.713,311.705ZM436.639,311.705L436.639,307.063L429.676,307.063L429.676,311.705L436.639,311.705ZM450.565,311.705L450.565,307.063L442.287,307.063L442.287,311.705L450.565,311.705ZM463.911,311.705L463.911,307.063L456.368,307.063L456.368,311.705L463.911,311.705ZM477.257,311.705L477.257,307.063L470.294,307.063L470.294,311.705L477.257,311.705ZM491.183,311.705L491.183,307.063L484.22,307.063L484.22,311.705L491.183,311.705ZM505.109,311.705L505.109,307.063L496.831,307.063L496.831,311.705L505.109,311.705ZM163.34,298.94L163.34,269.927L155.797,269.927L155.797,298.94L163.34,298.94ZM176.686,298.94L176.686,269.927L169.723,269.927L169.723,298.94L176.686,298.94ZM190.612,298.94L190.612,269.927L183.649,269.927L183.649,298.94L190.612,298.94ZM204.538,298.94L204.538,269.927L196.275,269.927L196.275,298.94L204.538,298.94ZM218.464,298.94L218.464,269.927L210.341,269.927L210.341,298.94L218.464,298.94ZM232.39,298.94L232.39,269.927L224.267,269.927L224.267,298.94L232.39,298.94ZM245.156,298.94L245.156,269.927L238.193,269.927L238.193,298.94L245.156,298.94ZM259.082,298.94L259.082,269.927L250.958,269.927L250.958,298.94L259.082,298.94ZM273.008,298.94L273.008,269.927L264.884,269.927L264.884,298.94L273.008,298.94ZM286.354,298.94L286.354,269.927L278.81,269.927L278.81,298.94L286.354,298.94ZM299.7,298.94L299.7,269.927L292.737,269.927L292.737,298.94L299.7,298.94ZM313.626,298.94L313.626,269.927L306.663,269.927L306.663,298.94L313.626,298.94ZM327.552,298.94L327.552,269.927L319.274,269.927L319.274,298.94L327.552,298.94ZM340.897,298.94L340.897,269.927L333.354,269.927L333.354,298.94L340.897,298.94ZM354.243,298.94L354.243,269.927L347.28,269.927L347.28,298.94L354.243,298.94ZM368.169,298.94L368.169,269.927L361.206,269.927L361.206,298.94L368.169,298.94ZM382.095,298.94L382.095,269.927L373.724,269.927L373.724,298.94L382.095,298.94ZM396.021,298.94L396.021,269.927L387.898,269.927L387.898,298.94L396.021,298.94ZM409.367,298.94L409.367,269.927L401.824,269.927L401.824,298.94L409.367,298.94ZM422.713,298.94L422.713,269.927L415.75,269.927L415.75,298.94L422.713,298.94ZM436.639,298.94L436.639,269.927L429.676,269.927L429.676,298.94L436.639,298.94ZM450.565,298.94L450.565,269.927L442.287,269.927L442.287,298.94L450.565,298.94ZM463.911,298.94L463.911,269.927L456.368,269.927L456.368,298.94L463.911,298.94ZM477.257,298.94L477.257,269.927L470.294,269.927L470.294,298.94L477.257,298.94ZM491.183,298.94L491.183,269.927L484.22,269.927L484.22,298.94L491.183,298.94ZM505.109,298.94L505.109,269.927L496.831,269.927L496.831,298.94L505.109,298.94ZM184.81,252.519L184.81,235.112L163.92,235.112L163.92,252.519L184.81,252.519ZM210.921,252.519L210.921,235.112L189.452,235.112L189.452,252.519L210.921,252.519ZM237.032,252.519L237.032,235.112L216.143,235.112L216.143,252.519L237.032,252.519ZM262.563,252.519L262.563,235.112L241.674,235.112L241.674,252.519L262.563,252.519ZM289.255,252.519L289.255,235.112L268.366,235.112L268.366,252.519L289.255,252.519ZM314.786,252.519L314.786,235.112L293.897,235.112L293.897,252.519L314.786,252.519ZM341.478,252.519L341.478,235.112L320.589,235.112L320.589,252.519L341.478,252.519ZM367.009,252.519L367.009,235.112L346.12,235.112L346.12,252.519L367.009,252.519ZM393.7,252.519L393.7,235.112L372.811,235.112L372.811,252.519L393.7,252.519ZM419.232,252.519L419.232,235.112L398.342,235.112L398.342,252.519L419.232,252.519ZM445.923,252.519L445.923,235.112L425.034,235.112L425.034,252.519L445.923,252.519ZM471.454,252.519L471.454,235.112L450.565,235.112L450.565,252.519L471.454,252.519ZM498.146,252.519L498.146,235.112L477.257,235.112L477.257,252.519L498.146,252.519ZM177.036,198.719L154.757,193.914L154.225,191.883L153.693,189.852L510.993,189.852L509.878,191.935L508.764,194.017L485.757,198.919L462.75,203.82L331.033,203.672L199.316,203.524L177.036,198.719ZM155.927,185.854L156.444,185.337L166.047,180.595L175.651,175.852L184.15,172.476L192.649,169.1L204.754,165.05L216.859,161L227.396,158.037L237.933,155.075L253.44,151.641L268.946,148.208L285.17,145.766L301.393,143.323L362.213,143.3L371.864,144.582L381.515,145.863L391.96,147.61L402.404,149.356L417.011,152.765L431.617,156.174L443.702,159.722L455.787,163.27L469.552,168.139L483.316,173.007L496.824,179.589L510.331,186.17L332.871,186.27L155.41,186.371L155.927,185.854ZM312.465,142.271L312.465,138.941L313.597,135.964L314.729,132.987L323.988,132.987L325.231,130.666L326.473,128.345L339.137,128.345L340.587,130.666L342.036,132.987L350.88,132.987L352.562,137.012L354.243,141.036L354.243,142.271L312.465,142.271Z" style="fill:rgb(28,86,136);fill-rule:nonzero;"/>
                <g id="_5-arc" serif:id="5-arc" transform="matrix(0,1,1,0,0,0)">
                    <path d="M612.491,393.988C597.041,475.272 550.199,547.188 482.272,593.909" style="fill:none;fill-rule:nonzero;stroke:rgb(178,209,59);stroke-width:75px;"/>
                </g>
                <g id="_4-arc" serif:id="4-arc" transform="matrix(0,1,1,0,0,0)">
                    <path d="M496.542,86.792C589.887,159.099 634.815,278.684 612.332,394.993" style="fill:none;fill-rule:nonzero;stroke:rgb(141,184,212);stroke-width:75px;"/>
                </g>
                <g id="_3-arc" serif:id="3-arc" transform="matrix(-3.82857e-16,-1,1,-3.82857e-16,0,0)">
                    <path d="M-509.577,97.469C-393.126,-2.894 -219.462,-2.695 -103.239,97.933" style="fill:none;fill-rule:nonzero;stroke:rgb(136,195,85);stroke-width:75px;"/>
                </g>
                <g id="_2-arc" serif:id="2-arc" transform="matrix(-3.82857e-16,-1,1,-3.82857e-16,0,0)">
                    <path d="M-141.41,69.706C-32.175,138.337 24.016,268.28 -0.561,395.422" style="fill:none;fill-rule:nonzero;stroke:rgb(28,86,136);stroke-width:75px;"/>
                </g>
                <g id="_1-arc" serif:id="1-arc" transform="matrix(-3.82857e-16,-1,1,-3.82857e-16,0,0)">
                    <path d="M-0.402,394.417C-15.967,476.307 -63.389,548.664 -132.087,595.341" style="fill:none;fill-rule:nonzero;stroke:rgb(178,209,59);stroke-width:75px;"/>
                </g>
            </g>
        </g>
    </g>
</svg>
