<?xml version="1.0" encoding="utf-8"?>
<!-- Generator: Adobe Illustrator 24.0.0, SVG Export Plug-In . SVG Version: 6.00 Build 0)  -->
<svg version="1.1" id="Layer_1" xmlns="http://www.w3.org/2000/svg" xmlns:xlink="http://www.w3.org/1999/xlink" x="0px" y="0px"
	 viewBox="0 0 208.5 73" style="enable-background:new 0 0 208.5 73;" xml:space="preserve">
<style type="text/css">
	.st0{fill:#FFFFFF;}
</style>
<path class="st0" d="M194.2,69.3c4,0.5,12.3-8,9.9-11.2C77.4,50.3,10.8,86.7,12.1,42.8c0-3.5,0.5-6.7,1.3-10.2s1.9-6.7,3.2-9.9
	s2.7-5.9,4.3-8.3s3.2-4.3,4.5-5.9c1.6-1.3,2.9-2.1,4.3-2.1c1.6,0,2.4,0.5,2.9,1.9c0.5,1.3,0.8,2.9,0.5,5.3c-1.6,2.1-3.2,4.5-4.5,7.2
	c-1.6,2.7-2.9,5.1-4.3,7.8s-2.4,5.1-3.5,7.5s-1.9,4.5-2.4,6.1c-1.3,3.7-1.6,6.4-1.1,8.3c0.5,1.9,1.6,2.7,2.9,2.7
	c1.6,0,3.2-1.1,5.3-2.9c2.1-1.9,4-5.1,6.1-8.8c1.1-1.9,1.9-4.3,2.7-6.7s1.6-5.1,2.1-7.8s0.8-5.3,1.1-7.8c0.3-2.7,0-4.8-0.3-7
	c1.3-1.6,2.7-2.9,3.7-3.7C42,7.4,43,7.2,44.1,7.2c1.6,0,2.7,0.8,3.2,2.1c0,0.5,0.3,2.4-0.3,4.5c-0.3,2.1-1.1,4.3-1.9,7
	c-1.1,2.7-2.1,5.1-3.2,7.5c-0.9,2.7-2,5.7-3,8.9c-0.8,2.9-1.3,5.9-1.1,8.3c0,2.7,0.8,4.5,1.9,6.4c1.1,1.6,3.2,2.4,5.9,2.4
	c1.9,0,3.5-0.3,5.1-1.1c1.6-0.5,2.9-1.3,4-2.4c1.1-0.8,1.9-1.9,2.7-2.9c0.3,0.8,0.5,1.3,0.8,1.9c0.8,1.3,1.9,2.4,3.5,3.2
	c1.3,0.8,2.9,1.1,4.5,1.3c1.6,0,3.2-0.3,5.1-0.8s3.5-1.6,5.1-2.7c1.6-1.3,3.2-2.9,4.8-4.8c1.3-1.9,2.7-4.3,3.7-6.7l0,0l2.4-5.6
	c1.1,0.5,2.1,0.8,2.9,1.1c1.1,0.3,1.9,0.3,2.7,0.3c-1.1,1.6-1.9,3.5-2.4,5.6s-1.1,4-1.1,5.9s0.3,3.7,0.8,5.1
	c0.5,1.3,1.6,2.4,3.2,2.7c1.1,0.3,2.1,0.3,3.2-0.3c1.1-0.5,2.1-1.3,2.9-2.1s1.9-1.9,2.7-3.2c0.8-1.3,1.6-2.4,2.1-3.5
	c0.3-0.8,0.8-1.3,1.1-2.1c0,0.3,0,0.8,0,1.1c0,3.2,0.5,5.6,1.6,7.5s2.7,2.9,5.1,2.9c1.3,0,2.7-0.5,4-1.9c1.3-1.3,2.4-2.7,3.5-4.3
	c0.8-1.3,1.6-2.4,2.1-3.7c-0.3,1.3-0.3,2.9,0,4c0.3,1.6,0.8,2.7,1.3,3.7c0.8,1.1,1.9,1.6,3.2,1.9c1.1,0.3,2.1,0,3.2-0.5
	s2.1-1.3,2.9-2.1c1.1-0.8,1.9-1.9,2.7-3.2c0.3-0.5,0.8-1.1,1.1-1.6c-0.3,1.3-0.3,2.7-0.3,3.7c0.3,1.6,0.5,2.7,1.3,3.2
	c0.5,0.5,1.3,0.8,2.1,0.5s1.3-1.3,1.9-2.7l0.3-1.1c1.1-2.7,2.1-5.1,3.5-7.5c1.3-2.4,2.9-4.5,4.5-6.4s2.9-3.5,4.3-4.5
	c1.3-1.1,2.4-1.6,3.5-1.6c0,0.3-0.3,0.8-0.5,1.6c-0.3,0.8-0.5,1.6-0.8,2.4c-0.3,0.8-0.5,1.9-1.1,2.7c-0.3,0.8-0.5,1.9-1.1,2.7
	c-0.8,2.1-1.1,4.3-1.3,5.9c-0.3,1.9-0.3,3.5,0,4.8s0.8,2.4,1.3,3.2c0.8,0.8,1.6,1.1,2.9,1.1c1.6,0,3.2-0.5,4.8-1.9
	c1.6-1.3,2.9-2.7,4-4.3s2.1-3.2,2.9-5.1s1.3-2.9,1.9-4c0.3-0.8,0.5-1.6,0.5-1.9c0-0.5,0-0.5-0.3-0.5s-0.5,0.3-0.8,0.5
	c-0.3,0.5-0.8,1.1-1.1,1.9c-0.8,1.6-1.6,3.2-2.4,4.8c-1.1,1.6-1.9,2.7-2.9,3.7c-1.1,1.1-1.9,1.9-2.7,2.4s-1.6,0.8-2.4,0.5
	c-0.5-0.3-0.8-0.8-0.8-1.6c0-1.1,0.5-2.1,1.1-3.5c0.5-1.3,1.3-2.9,2.1-4.8c0.8-1.9,1.6-3.5,2.1-5.3c0.8-1.9,1.3-3.5,1.9-5.1
	c0.5-1.6,0.5-2.9,0.5-4c-0.3-1.3-0.5-2.4-1.6-2.9c-0.8-0.5-2.1-0.8-3.5-0.8c-1.3,0.3-2.9,0.8-4.5,1.6c-1.6,1.1-3.2,2.4-4.8,4.3
	c-1.9,2.4-3.7,4.8-5.3,7.8c0.5-2.1,1.3-4.3,1.9-6.1c0.5-2.1,1.1-3.7,1.3-5.3c0.3-1.3,0.3-2.1-0.3-2.7c-0.3-0.5-0.8-0.8-1.3-0.8
	s-1.3,0.3-1.9,0.8c-0.5,0.5-1.1,1.3-1.3,2.1c-0.8,2.1-1.3,4.3-2.1,6.1c-0.8,2.1-1.6,4-2.1,5.6c-0.5,1.3-0.8,2.4-1.3,3.5
	s-1.3,2.4-2.1,3.7s-1.9,2.7-2.9,4c-1.1,1.1-2.1,2.1-2.9,2.7c-1.1,0.5-1.9,0.8-2.7,0.5c-0.5-0.3-0.8-0.8-0.8-1.6s0-1.9,0.3-3.2
	s0.8-2.7,1.3-4c0.5-1.6,1.3-2.9,1.9-4.5c0.8-1.6,1.3-2.9,2.1-4.3c0.8-1.3,1.6-2.7,2.1-3.5s0.8-1.6,0.5-2.7s-0.8-1.9-1.3-2.7
	c-0.8-0.8-1.6-1.1-2.4-1.1s-1.9,0.5-2.4,1.6c-1.3,2.1-2.4,4.3-3.5,6.4s-1.9,4.3-2.4,6.4c-0.3,0.5-0.3,1.3-0.5,1.9
	c-0.5,1.1-1.1,2.1-1.9,3.5c-0.8,1.3-1.6,2.7-2.4,3.7c-0.8,1.3-1.9,2.1-2.9,2.9c-1.1,0.8-1.9,1.3-2.7,1.3c-0.8,0-1.3-0.5-1.6-1.3
	c-0.3-1.1-0.5-2.4-0.5-4s0.3-3.7,0.5-5.9c0.3-2.1,1.1-4.5,1.6-7.2c0.5-0.5,1.1-1.6,1.9-2.7s1.9-2.4,2.7-3.7c1.1-1.3,2.1-2.9,3.2-4.5
	s2.1-3.5,3.2-5.1c1.9-3.2,3.2-5.9,3.7-8s0.5-3.7-0.3-4.8c0.3-1.6-0.8-1.9-2.1-1.9c-1.3,0.3-2.9,1.1-4.5,2.4
	c-1.9,1.3-3.5,3.5-5.3,5.9c-1.9,2.7-3.5,5.9-5.1,9.9c-1.6,4.3-2.9,8.6-3.7,12.8c-0.5,2.1-0.8,4.3-1.1,6.1l0,0
	c-0.5,1.3-1.3,2.7-2.1,4c-0.8,1.3-1.9,2.7-2.9,4c-1.1,1.1-2.1,2.1-3.2,2.7c-1.1,0.5-1.9,0.8-2.7,0.5c-0.5-0.3-1.1-0.8-1.1-1.3
	c0-0.8,0-1.6,0.3-2.7c0.3-1.1,0.5-2.1,1.1-3.5c0.5-1.3,1.1-2.7,1.9-4s1.3-2.7,2.1-4c0.8-1.3,1.6-2.4,2.1-3.5
	c0.5-0.8,0.8-1.6,0.5-2.7s-0.8-1.9-1.3-2.7c-0.8-0.8-1.6-1.1-2.4-1.1s-1.9,0.5-2.4,1.6l0,0c-0.8,1.1-1.6,1.9-2.7,1.9
	c-1.1,0.3-2.1,0-2.9-0.5c0.3-0.8,0.5-1.6,0.8-2.7c0.3-0.8,0.3-1.6,0-2.4S89.8,21.3,89,21c-0.5-0.5-1.3-0.5-2.7-0.5
	c-1.3,0.3-2.4,0.8-3.2,1.6c-0.8,0.8-1.1,2.1-1.1,3.2c0,1.3,0.3,2.4,1.1,3.7s1.6,2.4,2.9,3.2l-2.7,6.1l0,0C82.8,39.6,82,41,80.9,42
	c-0.8,1.3-1.9,2.1-3.2,3.2c-1.3,0.8-2.7,1.6-4,2.1c-1.6,0.5-3.2,0.5-5.3,0.5c-1.3-0.3-2.1-0.5-2.9-1.1c-0.8-0.5-1.6-1.3-2.1-2.1
	s-0.8-1.9-1.1-2.9C62,40.6,62,39.6,62,38.2c0.5,0.5,1.3,1.3,2.1,1.9c0.8,0.5,1.9,1.1,3.2,1.3c1.1,0.3,2.4,0.3,3.7,0.3
	c1.3,0,2.7-0.5,4-1.3c1.1-0.5,2.1-1.6,2.9-2.7c0.8-1.1,1.6-2.4,2.1-3.7s0.8-2.7,1.1-4c0-1.3,0-2.7-0.5-3.7c-0.5-1.1-1.1-2.1-2.1-2.7
	c-1.6-0.5-2.9-1.1-4.8-1.1s-3.5,0.3-5.3,1.3c-1.6,0.8-3.2,2.1-4.8,3.7c-1.3,1.6-2.7,3.2-3.7,5.3c-0.5,1.1-1.1,2.1-1.6,3.2
	c0,0,0-0.3-0.3-0.3c-0.8-1.1-1.6-1.6-2.4-1.9c-0.8,0-1.9,0-2.4,0.5c-0.8,0.5-1.3,1.1-1.9,1.9s-0.8,1.3-0.8,2.1
	c0.8,0,1.3,0.3,1.6,1.1s0.5,1.6,0.5,2.4c0,1.1,0,2.1-0.3,3.2c-0.3,1.1-0.8,2.1-1.3,3.2c-0.5,1.1-1.3,1.9-2.1,2.4
	c-0.8,0.8-1.9,1.1-3.2,1.1c-1.6,0-2.7-0.5-3.2-1.9c-0.5-1.3-0.3-2.9,0-4.8c0.5-2.1,1.3-4.3,2.4-7s2.4-5.3,4-8c1.1-1.9,1.9-4,2.4-6.1
	c1.3-2.4,1.6-4.5,1.9-6.4c0.3-1.9,0.3-3.7,0-5.6c-0.3-1.6-0.8-3.2-1.3-4.5c-0.8-1.3-1.6-2.1-2.9-2.9C47.4,4,46.1,3.8,44.5,4
	c-1.3,0-2.4,0.5-3.7,1.6c-1.3,0.8-2.7,2.1-4,3.5c-0.5-1.6-1.3-2.9-2.4-4C33.2,4.3,31.6,3.8,30,4c-1.9,0.3-4,1.1-6.1,2.7
	s-4.3,3.7-6.4,6.1s-4,5.3-5.6,8.6C-1,43.6,4.6,57,10,61.8C29.5,80.2,116.7,56.7,194.2,69.3z M30.8,25.2c-0.5,2.4-1.3,4.5-2.1,6.7
	c-0.8,2.1-1.6,4.3-2.4,6.1c-0.8,1.9-1.3,3.5-2.1,5.1c-1.1,2.1-1.9,3.7-2.7,4.8c-0.8,1.1-1.3,1.6-1.9,1.6c-0.5,0-0.5-0.5-0.5-1.9
	c0-1.1,0.3-2.7,1.1-4.8c0.5-1.6,1.1-3.2,2.1-5.3c0.8-1.9,1.9-4,2.9-6.1c1.1-2.1,2.1-4.3,3.5-6.7c1.3-1.9,2.7-4,3.7-5.9
	C32.2,20.9,31.6,23,30.8,25.2z M115,26l3.2-8.3c1.6-4,2.9-7,4.3-8.8s2.1-2.7,2.7-2.7c0.5,0,0.5,1.1,0,2.9c-0.5,1.9-1.9,4.5-4,7.8
	c-1.1,1.9-2.1,3.5-3.2,5.3c-1.1,1.9-2.1,3.5-3.2,4.8L115,26z M63.5,32.7c0.5-1.3,1.3-2.4,2.1-3.5c0.8-1.1,1.9-1.6,2.9-2.1
	c1.1-0.5,2.1-0.8,3.5-0.5c0.8,0.3,1.3,0.5,1.9,1.1c0.3,0.5,0.5,1.3,0.5,2.1c0,0.8-0.3,1.6-0.8,2.7c-0.3,0.8-0.8,1.9-1.6,2.7
	c-0.5,0.8-1.3,1.6-2.1,2.1s-1.6,1.1-2.4,1.1c-1.6,0.3-2.7,0.3-3.5-0.3c-0.8-0.3-1.6-0.8-1.9-1.1C62.4,35.3,62.9,34,63.5,32.7z"/>
<path class="st0" d="M138.6,18.5c0.8,0,1.9-0.3,2.4-0.8c1.1-1.1,1.9-2.1,1.9-3.7c0-1.3-0.5-2.7-1.9-3.5c-0.5-0.5-1.6-0.8-2.4-1.1
	c-1.6-0.3-2.7,0.3-3.7,1.3c-0.8,0.8-1.3,2.1-1.3,3.2c0,1.3,0.5,2.4,1.3,3.2C135.9,18.2,137.2,18.8,138.6,18.5z"/>
<path class="st0" d="M174.1,25.4c0.5,0.3,0.8,0.3,1.6,0c0.5,0,1.3-0.3,1.9-0.8c0.8-0.3,1.3-0.8,1.9-1.6c0.5-0.5,1.1-1.3,1.6-2.1
	c0.8-1.3,0.8-2.7,0.5-3.5c-0.3-1.1-0.8-1.6-1.6-1.9c-0.8-0.3-1.6-0.3-2.4,0c-0.8,0.3-1.3,0.8-1.9,1.9c-0.5,0.8-0.5,1.6-0.3,2.1
	c0.3,0.8,0.5,1.3,0.8,1.9c0.3,0.5,0.3,1.3,0,1.9C176,23.8,175.2,24.6,174.1,25.4z"/>
<path class="st0" d="M180,46c0.3,2.1,1.1,3.7,2.1,5.3c0.5,0.8,1.3,1.3,2.1,1.6c0.8,0.5,1.9,0.8,2.7,0.8c1.1,0,1.9,0,2.9-0.3
	c1.1-0.3,1.9-0.5,2.7-1.1c1.6-0.8,2.9-1.6,4-2.7c1.1-1.1,2.1-2.1,3.2-3.5c0.8-1.3,1.9-2.4,2.4-3.7c0.8-1.3,1.3-2.7,1.9-3.7
	c0.3-0.5,0.3-0.8,0.3-1.1s-0.3-0.3-0.3-0.3c-0.3,0-0.3,0.3-0.5,0.5c-0.3,0.3-0.5,0.5-0.8,1.1c-0.8,1.9-1.6,3.5-2.7,4.8
	c-1.1,1.6-2.1,2.7-3.5,4c0-0.3,0.3-0.5,0.3-0.8s0-0.5,0-1.1c0-1.6-0.3-3.2-0.5-4.8c-0.5-1.3-0.8-2.9-1.1-4.3
	c-0.3-1.3-0.5-2.9-0.3-4.5c0-1.6,0.8-3.2,1.9-5.1c1.1-1.6,1.3-2.9,1.1-3.7c-0.3-0.8-1.1-1.1-2.4-0.8c-1.1,0.3-2.4,0.8-4,1.9
	s-2.9,2.7-4.3,4.8c-1.1,1.6-2.1,3.2-2.9,4.8c-0.8,1.6-1.6,3.2-2.4,4.8C180.3,41.5,179.7,43.9,180,46z M182.4,42.5
	c0.3-1.6,0.8-2.9,1.6-4.3c0.8-1.3,1.3-2.7,2.1-4s1.6-2.4,2.1-3.7c-0.5,1.3-0.5,2.7-0.3,4.3c0.3,1.6,0.8,3.2,1.6,5.1
	c0.5,1.6,1.1,3.5,1.3,5.1c0.3,1.6,0.3,3.2-0.3,4.5c-0.5,1.1-1.1,1.6-1.9,1.9s-1.9,0.5-2.7,0.3c-0.8-0.3-1.9-0.8-2.4-1.6
	c-0.8-0.8-1.3-1.9-1.6-2.9C181.9,45.5,181.9,43.9,182.4,42.5z"/>
<path class="st0" d="M207.9,17.2c-0.4-0.7-0.9-1.2-1.6-1.5c-0.7-0.4-1.4-0.5-2.1-0.5s-1.4,0.2-2.1,0.5c-0.7,0.4-1.2,0.9-1.6,1.5
	c-0.4,0.7-0.6,1.4-0.6,2.1s0.2,1.4,0.6,2.1s0.9,1.2,1.6,1.6c0.7,0.4,1.4,0.6,2.1,0.6s1.4-0.2,2.1-0.6c0.7-0.4,1.2-0.9,1.5-1.6
	c0.4-0.7,0.6-1.4,0.6-2.1S208.3,17.9,207.9,17.2z M207.3,21.1c-0.3,0.6-0.7,1-1.3,1.3s-1.1,0.5-1.7,0.5s-1.2-0.2-1.7-0.5
	c-0.6-0.3-1-0.7-1.3-1.3s-0.5-1.1-0.5-1.7s0.2-1.2,0.5-1.8s0.8-1,1.3-1.3c0.6-0.3,1.1-0.5,1.7-0.5s1.2,0.2,1.7,0.5
	c0.6,0.3,1,0.7,1.3,1.3s0.5,1.1,0.5,1.8C207.8,19.9,207.6,20.5,207.3,21.1z"/>
<path class="st0" d="M205,19.9c-0.1-0.1-0.2-0.2-0.4-0.2c0.4,0,0.7-0.2,0.9-0.4c0.2-0.2,0.4-0.5,0.4-0.9c0-0.2-0.1-0.5-0.2-0.7
	c-0.1-0.2-0.3-0.4-0.6-0.4c-0.2-0.1-0.6-0.1-1.1-0.1h-1.6v4.4h0.7v-1.9h0.4c0.3,0,0.4,0.1,0.6,0.2c0.2,0.1,0.4,0.5,0.8,1l0.4,0.7
	h0.9l-0.5-0.9C205.4,20.3,205.2,20,205,19.9z M204,19.1h-0.9v-1.4h0.8c0.4,0,0.6,0,0.7,0.1s0.2,0.1,0.3,0.2s0.1,0.2,0.1,0.4
	c0,0.2-0.1,0.4-0.2,0.5S204.5,19.1,204,19.1z"/>
</svg>
