<?xml version="1.0" encoding="UTF-8" standalone="no"?>
<!DOCTYPE svg PUBLIC "-//W3C//DTD SVG 1.1//EN" "http://www.w3.org/Graphics/SVG/1.1/DTD/svg11.dtd">
<svg width="100%" height="100%" viewBox="0 0 2526 1649" version="1.1" xmlns="http://www.w3.org/2000/svg" xmlns:xlink="http://www.w3.org/1999/xlink" xml:space="preserve" xmlns:serif="http://www.serif.com/" style="fill-rule:evenodd;clip-rule:evenodd;stroke-linejoin:round;stroke-miterlimit:2;">
    <g transform="matrix(1,0,0,1,-7688.37,-12732)">
        <g transform="matrix(3.69466,0,0,1.31403,-9836.21,-3932.78)">
            <g transform="matrix(0.377154,0,0,1.06045,4541.38,11338.9)">
                <g>
                    <g transform="matrix(0.971999,0,0,0.971999,918.801,1925.65)">
                        <path d="M0,-342.99L0,-62.531C0,-18.339 -26.82,0 -56.602,0C-69.495,0 -81.905,-2.965 -97.829,-17.856L-301.348,-200.554L-301.348,0L-394.697,0L-394.697,-280.942C-394.697,-325.134 -367.879,-342.99 -338.579,-342.99C-326.168,-342.99 -313.759,-340.026 -297.351,-325.134L-93.832,-142.436L-93.832,-342.99L0,-342.99Z" style="fill:white;fill-rule:nonzero;"/>
                    </g>
                    <g transform="matrix(0.971999,0,0,0.971999,1203.38,1676.18)">
                        <path d="M0,170.358C-103.209,170.358 -140.437,156.431 -140.437,84.938C-140.437,13.444 -103.209,0.069 0,0.069C103.276,0.069 140.504,13.444 140.504,84.938C140.504,156.431 103.276,170.358 0,170.358M0,-86.316C-161.81,-86.316 -242.747,-33.712 -242.747,84.938C-242.747,203.588 -161.81,256.674 0,256.674C161.394,256.674 242.747,203.588 242.747,84.938C242.747,-33.712 161.394,-86.316 0,-86.316" style="fill:white;fill-rule:nonzero;"/>
                    </g>
                    <g transform="matrix(0.971999,0,0,0.971999,1836.92,1925.67)">
                        <path d="M0,-342.99L-155.88,-119.023L-305.279,-342.99L-431.375,-342.99L-223.375,-37.83C-208.966,-16.603 -188.628,0 -157.88,0C-126.096,0 -105.69,-18.144 -91.349,-37.83L121.131,-342.99L0,-342.99Z" style="fill:white;fill-rule:nonzero;"/>
                    </g>
                    <g transform="matrix(0.204968,-1.09871,1.09871,0.204968,796.59,2438.01)">
                        <path d="M300.174,284.486C316.016,284.486 318.384,302.24 326.746,307.953C333.565,312.612 487.758,379.519 513.879,379.519L533.66,412.234C533.66,412.234 536.45,413.502 519.712,413.502C519.712,413.502 384.962,381.497 342.153,381.497C331.806,381.497 309.286,391.982 309.286,397.752L307.406,410.539C307.406,410.539 303.346,413.168 301.838,414.145C301.498,414.364 301.063,414.371 300.718,414.161C299.114,413.186 294.652,410.472 294.652,410.472L291.063,397.752C291.063,391.982 268.543,381.497 258.196,381.497C215.387,381.497 80.637,413.502 80.637,413.502C63.899,413.502 66.689,412.234 66.689,412.234L86.47,379.519C112.591,379.519 266.784,312.612 273.603,307.953C281.965,302.24 284.333,284.486 300.174,284.486Z" style="fill:white;"/>
                    </g>
                    <g transform="matrix(0.253015,-1.35626,1.35626,0.253015,692.017,2545.8)">
                        <path d="M323.896,389.132L271.256,394.599L275.404,384.926C278.782,381.683 283.474,380.19 288.105,380.886L342.984,389.132L396.527,384.283L391.476,393.338C388.098,396.581 383.406,398.073 378.775,397.377L323.896,389.132Z" style="fill:white;"/>
                    </g>
                    <g transform="matrix(10.6265,2.53679,-2.53679,10.6265,2314.84,1493.78)">
                        <path d="M0,4.127C-0.017,4.213 -0.12,4.264 -0.317,4.29C-0.539,4.315 -0.771,4.315 -0.985,4.324L-1.13,4.324C-1.884,4.341 -2.637,4.35 -3.408,4.35C-3.476,4.35 -3.553,4.35 -3.63,4.358C-3.862,4.358 -4.11,4.358 -4.35,4.341C-4.658,4.307 -4.975,4.255 -5.283,4.187C-5.643,4.11 -5.882,3.939 -6.174,3.699C-6.319,3.588 -6.456,3.468 -6.593,3.356C-6.721,3.245 -6.85,3.134 -6.987,3.022L-7.963,7.072L-9.958,9.513L-11.371,9.187L-10.506,7.329L-14.445,6.071L-14.882,7.038L-15.626,6.876L-15.541,6.49L-18.195,6.079C-18.247,6.173 -18.461,6.533 -18.743,6.953C-19.274,7.732 -20.079,8.716 -20.644,8.631L-24.112,7.834C-24.617,7.68 -24.9,6.627 -25.054,5.737C-25.156,5.137 -25.191,4.598 -25.208,4.469L-27.777,3.682L-27.862,4.067L-28.599,3.887L-28.573,2.825L-32.666,2.243L-32.7,4.29L-34.113,3.964L-34.841,0.89L-33.959,-3.168C-34.121,-3.134 -34.293,-3.091 -34.455,-3.048C-34.626,-3.006 -34.806,-2.963 -34.977,-2.92C-35.346,-2.834 -35.637,-2.783 -35.988,-2.869C-36.296,-2.937 -36.604,-3.031 -36.904,-3.143C-37.127,-3.228 -37.349,-3.339 -37.555,-3.442C-37.623,-3.476 -37.692,-3.511 -37.752,-3.536C-38.445,-3.879 -39.113,-4.213 -39.79,-4.555L-39.918,-4.624C-40.115,-4.727 -40.312,-4.829 -40.5,-4.949C-40.672,-5.052 -40.74,-5.146 -40.723,-5.223C-40.689,-5.352 -40.449,-5.377 -40.406,-5.386L-40.389,-5.377L-39.464,-5.189C-38.051,-4.906 -36.647,-4.615 -35.234,-4.324L-34.293,-4.136C-34.113,-4.102 -33.941,-4.059 -33.77,-4.024L-33.77,-4.033C-33.77,-4.067 -33.77,-4.11 -33.762,-4.144C-33.745,-4.213 -33.693,-4.239 -33.642,-4.256L-33.565,-4.29C-33.513,-4.316 -33.462,-4.333 -33.411,-4.35C-33.256,-4.41 -33.102,-4.461 -32.948,-4.513L-32.897,-4.521C-32.7,-4.581 -32.477,-4.649 -32.272,-4.581C-32.058,-4.504 -31.869,-4.316 -31.715,-4.161L-31.698,-4.144C-31.475,-3.922 -31.313,-3.733 -31.167,-3.536C-31.142,-3.511 -31.142,-3.468 -31.167,-3.442L-31.184,-3.417L-31.184,-3.408L-30.405,-3.22C-29.66,-3.048 -28.907,-2.86 -28.179,-2.68C-27.811,-2.595 -27.443,-2.5 -27.074,-2.415L-24.728,-1.841C-24.685,-1.824 -24.48,-1.73 -24.489,-1.601C-24.489,-1.524 -24.566,-1.464 -24.728,-1.421L-24.737,-1.421L-27.939,-1.31C-28.419,-1.293 -28.864,-1.276 -29.335,-1.37C-29.489,-1.404 -29.635,-1.439 -29.78,-1.473C-30.131,-1.558 -30.405,-1.781 -30.671,-2.004C-30.731,-2.055 -30.799,-2.106 -30.859,-2.158L-31.458,-2.629L-32.083,0.034C-31.467,0.06 -25.799,0.325 -25.139,0.565C-24.908,0.462 -22.622,-0.582 -22.245,-0.488C-21.877,-0.411 -20.473,-0.094 -20.464,-0.094C-20.447,-0.094 -19.06,0.24 -18.692,0.325C-18.315,0.411 -16.705,2.346 -16.551,2.543C-15.849,2.611 -10.643,4.846 -10.069,5.094L-9.47,2.423L-10.215,2.586C-10.292,2.603 -10.369,2.62 -10.446,2.646C-10.789,2.723 -11.131,2.808 -11.482,2.731C-11.628,2.697 -11.782,2.671 -11.927,2.629C-12.398,2.509 -12.792,2.303 -13.212,2.081L-16.055,0.574C-16.174,0.462 -16.217,0.377 -16.192,0.3C-16.14,0.188 -15.918,0.188 -15.875,0.197L-15.84,0.197L-13.511,0.702C-13.135,0.788 -12.767,0.865 -12.398,0.942C-11.662,1.096 -10.9,1.259 -10.164,1.43L-9.376,1.601L-9.376,1.558C-9.384,1.533 -9.367,1.498 -9.342,1.481C-9.128,1.37 -8.888,1.267 -8.588,1.164L-8.571,1.156C-8.366,1.087 -8.109,0.993 -7.886,1.027C-7.672,1.053 -7.501,1.207 -7.347,1.353L-7.304,1.387C-7.184,1.49 -7.073,1.601 -6.961,1.721C-6.927,1.764 -6.884,1.807 -6.85,1.849L-6.79,1.918C-6.756,1.952 -6.721,1.995 -6.739,2.063C-6.747,2.098 -6.764,2.132 -6.781,2.166L-6.781,2.175C-6.61,2.218 -6.439,2.26 -6.268,2.303L-5.326,2.543C-3.939,2.903 -2.543,3.254 -1.147,3.613L-0.223,3.853C-0.18,3.879 0.026,3.999 0,4.127" style="fill:white;fill-rule:nonzero;"/>
                    </g>
                    <g transform="matrix(1,0,0,1,-2461.98,-1761.15)">
                        <path d="M3795.2,3963.01L3796.6,3948.73C3826.16,3951.62 3854.06,3953.01 3879.6,3953.01C3997.74,3953.01 4189.17,3922.47 4355.61,3847.99C4465.93,3798.62 4565.32,3729.98 4624.57,3637.81L4636.65,3645.57C4575.97,3739.95 4474.44,3810.54 4361.47,3861.09C4192.99,3936.49 3999.19,3967.37 3879.6,3967.37C3853.63,3967.37 3825.26,3965.95 3795.2,3963.01ZM3172.15,3667.75L3183.51,3658.97C3284.83,3790.11 3452.18,3871.43 3611.45,3914.49L3607.7,3928.35C3445.51,3884.49 3275.33,3801.29 3172.15,3667.75Z" style="fill:white;"/>
                    </g>
                    <g transform="matrix(-1,-1.22465e-16,1.22465e-16,-1,5329.6,5234.06)">
                        <path d="M4480.68,3796.58L4472.81,3784.57C4479.07,3780.47 4527.91,3744.79 4544.6,3729.93L4554.15,3740.65C4537.06,3755.86 4487.09,3792.38 4480.68,3796.58ZM3467.5,3880.48L3473.05,3867.24C3615.84,3927.16 3769.55,3953.01 3879.6,3953.01C4017.92,3953.01 4256.77,3911.18 4438.24,3805.89L4445.44,3818.3C4261.62,3924.95 4019.7,3967.37 3879.6,3967.37C3768.05,3967.37 3612.24,3941.21 3467.5,3880.48Z" style="fill:white;"/>
                    </g>
                </g>
                <g transform="matrix(0.971999,0,0,0.971999,2347.75,1592.37)">
                    <path d="M0,342.899L-126.094,342.899L-275.494,118.996L-431.38,342.899L-552.504,342.899L-340.03,37.823C-325.686,18.135 -305.277,0 -273.493,0C-242.75,0 -222.414,16.6 -207.997,37.823L0,342.899Z" style="fill:white;fill-rule:nonzero;"/>
                </g>
            </g>
        </g>
    </g>
</svg>
