<?xml version="1.0" encoding="UTF-8" standalone="no"?>
<!DOCTYPE svg PUBLIC "-//W3C//DTD SVG 1.1//EN" "http://www.w3.org/Graphics/SVG/1.1/DTD/svg11.dtd">
<svg width="100%" height="100%" viewBox="0 0 5709 5709" version="1.1" xmlns="http://www.w3.org/2000/svg" xmlns:xlink="http://www.w3.org/1999/xlink" xml:space="preserve" xmlns:serif="http://www.serif.com/" style="fill-rule:evenodd;clip-rule:evenodd;stroke-linejoin:round;stroke-miterlimit:2;">
    <g transform="matrix(1,0,0,1,-7547.88,-68.5236)">
        <g transform="matrix(1.13113,0,0,1.02634,-980.831,0)">
            <g transform="matrix(0.884068,0,0,0.974333,867.121,0)">
                <g transform="matrix(2.10169,0,0,2.10169,-9212.61,-6484.56)">
                    <circle cx="9332.86" cy="4476.19" r="1201.25" style="fill:white;"/>
                </g>
                <g transform="matrix(1.1021,0,0,1,-763.849,0)">
                    <g transform="matrix(0.907357,0,0,1,7480.22,0.439363)">
                        <path d="M2865.5,68.5C3348.67,60.547 3805,166.713 4234.5,387C4623.46,590.403 4949.96,868.236 5214,1220.5C5535.69,1656.72 5720.03,2146.39 5767,2689.5C5805.18,3175.75 5725.85,3641.75 5529,4087.5C5313.87,4561.31 4994.7,4949.81 4571.5,5253C4178.51,5529.95 3742.17,5697.95 3262.5,5757C2796.67,5811.06 2344.34,5755.73 1905.5,5591C1458.4,5417.94 1077.56,5151.11 763,4790.5C485.901,4469.1 288.901,4102.43 172,3690.5C57.761,3273.06 37.428,2851.06 111,2424.5C196.081,1955.16 384.414,1533.83 676,1160.5C973.649,784.937 1341.48,500.104 1779.5,306C2125.91,155.751 2487.91,76.584 2865.5,68.5ZM2863.5,750.5C2621.76,757.459 2387.42,802.959 2160.5,887C1775.76,1034.13 1456.59,1269.63 1203,1593.5C959.182,1910.71 812.849,2269.04 764,2668.5C726.731,2995.58 760.731,3314.91 866,3626.5C996.137,3999.78 1210.3,4315.28 1508.5,4573C1831.91,4847.96 2205.24,5015.63 2628.5,5076C3034.33,5128.77 3424.66,5073.77 3799.5,4911C4135.65,4760.82 4416.81,4540.32 4643,4249.5C4905.85,3905.44 5054.52,3516.44 5089,3082.5C5117.59,2673.11 5038.26,2286.11 4851,1921.5C4653.77,1547.6 4372.6,1253.76 4007.5,1040C3653.19,838.255 3271.86,741.755 2863.5,750.5Z" style="fill:rgb(19,44,80);"/>
                    </g>
                    <g>
                        <g transform="matrix(0.907357,0,0,1,7480.22,0.439363)">
                            <path d="M2826.5,565.5L2789.5,563.5C2825.55,464.175 2861.72,364.841 2898,265.5C2913.93,264.837 2929.93,264.504 2946,264.5C2962.22,264.508 2978.22,265.174 2994,266.5C3027.14,365.574 3060.47,464.574 3094,563.5C3094.49,565.134 3094.66,566.801 3094.5,568.5C3067.5,568.244 3040.5,567.911 3013.5,567.5C3007.18,544.855 3000.84,522.188 2994.5,499.5C2959.85,498.389 2925.18,498.222 2890.5,499C2882.74,520.619 2875.57,542.452 2869,564.5C2854.91,565.49 2840.75,565.824 2826.5,565.5ZM2943.5,325.5C2930.7,365.034 2918.37,404.701 2906.5,444.5C2930.85,444.249 2955.18,444.582 2979.5,445.5C2968.98,407.43 2958.15,369.43 2947,331.5C2946.58,328.975 2945.41,326.975 2943.5,325.5Z" style="fill:rgb(253,254,254);"/>
                        </g>
                        <g transform="matrix(0.907357,0,0,1,7480.22,0.439363)">
                            <path d="M2622.5,274.5C2654.95,271.385 2685.62,277.218 2714.5,292C2733.85,303.868 2747.68,320.368 2756,341.5C2756.68,342.784 2756.52,343.951 2755.5,345C2734.05,357.055 2712.39,368.555 2690.5,379.5C2681.95,347.795 2661.28,333.628 2628.5,337C2598.33,341.167 2579.5,358.001 2572,387.5C2566.19,419.211 2568.85,450.211 2580,480.5C2594.77,515.473 2620.94,529.307 2658.5,522C2685.76,514.216 2700.43,496.049 2702.5,467.5C2726.15,471.331 2749.82,475.164 2773.5,479C2774.62,479.839 2775.29,481.006 2775.5,482.5C2768.45,524.709 2745.45,554.543 2706.5,572C2668.11,587.677 2628.77,590.677 2588.5,581C2548.3,568.805 2520.14,543.305 2504,504.5C2489.45,465.996 2485.12,426.329 2491,385.5C2502.71,332.456 2534.54,297.956 2586.5,282C2598.46,278.642 2610.46,276.142 2622.5,274.5Z" style="fill:rgb(254,254,254);"/>
                        </g>
                        <g transform="matrix(0.907357,0,0,1,7480.22,0.439363)">
                            <path d="M3293.5,288.5C3346.52,298.448 3399.52,308.615 3452.5,319C3468.28,323.056 3483.28,329.056 3497.5,337C3531.03,360.879 3540.53,392.379 3526,431.5C3512.2,459.991 3489.37,473.491 3457.5,472C3502.31,486.782 3519.81,517.282 3510,563.5C3498.8,597.345 3475.3,615.512 3439.5,618C3425.41,618.997 3411.41,618.33 3397.5,616C3344.18,606.026 3290.85,596.193 3237.5,586.5C3255.85,487.097 3274.52,387.763 3293.5,288.5ZM3357.5,360.5C3353.59,381.852 3349.59,403.185 3345.5,424.5C3364.22,427.675 3382.88,431.175 3401.5,435C3408.79,436.353 3416.13,436.686 3423.5,436C3431.36,434.986 3437.86,431.486 3443,425.5C3457.26,398.258 3449.76,380.424 3420.5,372C3399.62,367.362 3378.62,363.528 3357.5,360.5ZM3334.5,479.5C3330.78,501.548 3326.78,523.548 3322.5,545.5C3345.21,549.34 3367.87,553.507 3390.5,558C3396.83,558.667 3403.17,558.667 3409.5,558C3419.31,555.847 3426.48,550.347 3431,541.5C3439.7,514.744 3430.2,498.577 3402.5,493C3379.74,488.681 3357.07,484.181 3334.5,479.5Z" style="fill:rgb(253,254,254);"/>
                        </g>
                        <g transform="matrix(0.907357,0,0,1,7480.22,0.439363)">
                            <path d="M2395.5,313.5L2399.5,313.5C2420.56,412.11 2441.22,510.777 2461.5,609.5C2436.33,614.752 2411.16,620.085 2386,625.5C2384.26,624.318 2383.26,622.651 2383,620.5C2362.99,524.128 2342.82,427.794 2322.5,331.5C2322.82,330.353 2323.48,329.519 2324.5,329C2348.37,324.128 2372.04,318.961 2395.5,313.5Z" style="fill:rgb(253,253,254);"/>
                        </g>
                        <g transform="matrix(0.907357,0,0,1,7480.22,0.439363)">
                            <path d="M2230.5,348.5C2233.24,347.965 2235.07,348.965 2236,351.5C2266.35,446.372 2296.18,541.372 2325.5,636.5C2297.53,645.322 2269.53,653.822 2241.5,662C2198.8,622.298 2155.8,582.965 2112.5,544C2098,529.5 2083.5,515 2069,500.5C2090.99,565.244 2112.15,630.41 2132.5,696C2132.09,696.945 2131.43,697.612 2130.5,698C2108.85,704.994 2087.18,711.827 2065.5,718.5C2035.86,622.452 2005.53,526.619 1974.5,431C2000.63,421.88 2026.97,413.213 2053.5,405C2055.5,404.333 2057.5,404.333 2059.5,405C2102.2,444.702 2145.2,484.035 2188.5,523C2203,537.5 2217.5,552 2232,566.5C2210.18,501.526 2189.01,436.193 2168.5,370.5C2168.82,369.353 2169.48,368.519 2170.5,368C2190.64,361.562 2210.64,355.062 2230.5,348.5Z" style="fill:rgb(254,254,254);"/>
                        </g>
                        <g transform="matrix(0.907357,0,0,1,7480.22,0.439363)">
                            <path d="M3623.5,356.5C3648.37,364.9 3673.37,372.9 3698.5,380.5C3679.85,439.63 3660.68,498.63 3641,557.5C3628.93,601.085 3645.1,626.919 3689.5,635C3712.24,637.378 3729.08,628.545 3740,608.5C3742.27,604.286 3744.27,599.953 3746,595.5C3765.81,535.908 3785.31,476.241 3804.5,416.5C3829.97,424.433 3855.3,432.766 3880.5,441.5C3860.04,502.045 3839.87,562.712 3820,623.5C3797.06,683.064 3753.89,708.231 3690.5,699C3655.5,693.233 3623.84,679.9 3595.5,659C3566.85,634.39 3554.68,603.223 3559,565.5C3560.02,556.051 3561.69,546.718 3564,537.5C3583.54,477.039 3603.38,416.706 3623.5,356.5Z" style="fill:rgb(254,254,254);"/>
                        </g>
                        <g transform="matrix(0.907357,0,0,1,7480.22,0.439363)">
                            <path d="M1881.5,466.5C1882.38,466.369 1883.04,466.702 1883.5,467.5C1926.83,557.798 1970.16,648.132 2013.5,738.5C1990.39,750.805 1966.89,762.472 1943,773.5C1929.43,746.017 1916.09,718.35 1903,690.5C1898.84,681.518 1894.18,672.852 1889,664.5C1863.8,676.18 1838.64,688.014 1813.5,700C1804.18,704.326 1795.18,709.159 1786.5,714.5C1803.85,750.531 1821.18,786.531 1838.5,822.5C1815.11,834.277 1791.61,845.944 1768,857.5C1724.33,766.652 1680.49,675.819 1636.5,585C1660.14,573.516 1683.8,562.016 1707.5,550.5C1724.94,585.711 1742.11,621.044 1759,656.5C1759.56,657.022 1760.23,657.355 1761,657.5C1795.35,641.409 1829.52,624.909 1863.5,608C1846.15,572.302 1828.82,536.636 1811.5,501C1835.05,489.725 1858.38,478.225 1881.5,466.5Z" style="fill:rgb(254,254,254);"/>
                        </g>
                        <g transform="matrix(0.907357,0,0,1,7480.22,0.439363)">
                            <path d="M4001.5,512.5C4059.55,511.118 4108.05,531.785 4147,574.5C4167.36,600.111 4174.53,629.111 4168.5,661.5C4143.48,659.866 4118.48,658.199 4093.5,656.5C4102.8,622.259 4091.13,598.426 4058.5,585C4032.87,575.46 4009.87,579.793 3989.5,598C3966.64,622.556 3951.8,651.389 3945,684.5C3940.98,726.951 3959.81,752.785 4001.5,762C4013.96,763.635 4025.63,761.301 4036.5,755C4043.61,749.726 4050.28,743.892 4056.5,737.5C4074.82,753.314 4092.98,769.314 4111,785.5C4111.67,786.167 4111.67,786.833 4111,787.5C4074.77,825.767 4031.27,837.267 3980.5,822C3942.02,810.363 3910.85,788.53 3887,756.5C3867.47,724.151 3861.81,689.484 3870,652.5C3879.88,611.226 3899.71,575.726 3929.5,546C3950.13,527.517 3974.13,516.35 4001.5,512.5Z" style="fill:rgb(253,254,254);"/>
                        </g>
                        <g transform="matrix(0.907357,0,0,1,7480.22,0.439363)">
                            <path d="M1563.5,626.5C1564.68,626.281 1565.68,626.614 1566.5,627.5C1577.04,644.085 1587.71,660.585 1598.5,677C1554.83,705.5 1511.17,734 1467.5,762.5C1478.25,779.67 1489.25,796.67 1500.5,813.5C1534.76,790.787 1569.26,768.453 1604,746.5C1615.46,761.387 1625.96,777.053 1635.5,793.5C1635.02,794.478 1634.36,795.311 1633.5,796C1599.73,817.44 1566.23,839.273 1533,861.5C1532.68,862.908 1533.02,864.241 1534,865.5C1544,880.833 1554,896.167 1564,911.5C1565.05,912.517 1566.22,912.684 1567.5,912C1611.74,882.757 1656.24,853.924 1701,825.5C1712.4,841.965 1723.57,858.631 1734.5,875.5C1667.54,919.984 1600.21,963.984 1532.5,1007.5C1477.25,923.337 1422.25,839.004 1367.5,754.5C1432.9,711.809 1498.23,669.143 1563.5,626.5Z" style="fill:rgb(253,253,254);"/>
                        </g>
                        <g transform="matrix(0.907357,0,0,1,7480.22,0.439363)">
                            <path d="M4263.5,625.5C4285.8,639.99 4308.14,654.49 4330.5,669C4297.12,720.252 4263.62,771.419 4230,822.5C4205.25,865.522 4216.09,896.022 4262.5,914C4279.89,917.819 4295.23,913.819 4308.5,902C4312.35,898.451 4315.85,894.617 4319,890.5C4353.96,837.419 4388.79,784.252 4423.5,731C4446.15,744.514 4468.49,758.848 4490.5,774C4455.63,826.243 4421.13,878.743 4387,931.5C4342.38,991.127 4287.55,1002.29 4222.5,965C4198.45,951.383 4177.62,933.883 4160,912.5C4135.54,876.048 4133.04,838.048 4152.5,798.5C4157.16,789.174 4162.33,780.174 4168,771.5C4200.09,722.976 4231.93,674.309 4263.5,625.5Z" style="fill:rgb(253,254,254);"/>
                        </g>
                        <g transform="matrix(0.907357,0,0,1,7480.22,0.439363)">
                            <path d="M1308.5,795.5C1321.65,810.821 1334.65,826.321 1347.5,842C1346.9,843.605 1345.9,844.938 1344.5,846C1321,865.5 1297.5,885 1274,904.5C1273.33,905.5 1273.33,906.5 1274,907.5C1325.02,968.354 1375.86,1029.35 1426.5,1090.5C1406.5,1107.66 1386.34,1124.66 1366,1141.5C1314.95,1079.91 1263.79,1018.41 1212.5,957C1210.02,957.747 1207.69,959.081 1205.5,961C1182.41,980.291 1159.24,999.457 1136,1018.5C1122.47,1003.63 1109.64,988.133 1097.5,972C1167.71,912.95 1238.04,854.116 1308.5,795.5Z" style="fill:rgb(254,254,254);"/>
                        </g>
                        <g transform="matrix(0.907357,0,0,1,7480.22,0.439363)">
                            <path d="M4560.5,829.5C4562.78,829.608 4564.78,830.441 4566.5,832C4602.21,863.374 4638.21,894.374 4674.5,925C4690.47,938.619 4702.97,954.786 4712,973.5C4725.65,1007.67 4720.98,1039 4698,1067.5C4669.8,1100.67 4635.3,1109.67 4594.5,1094.5C4587.42,1142.19 4580.42,1189.85 4573.5,1237.5L4509.5,1182.5C4509.17,1181.17 4508.83,1179.83 4508.5,1178.5C4515.45,1139.46 4522.62,1100.46 4530,1061.5C4531.18,1057.73 4530.35,1054.56 4527.5,1052C4517.65,1043.9 4507.98,1035.57 4498.5,1027C4497.24,1026.02 4495.91,1025.68 4494.5,1026C4471.02,1053.65 4447.35,1081.15 4423.5,1108.5C4404.13,1091.49 4384.79,1074.49 4365.5,1057.5C4430.55,981.461 4495.55,905.461 4560.5,829.5ZM4581.5,924.5C4565.38,943.794 4549.04,962.961 4532.5,982C4549.58,997.75 4567.25,1012.75 4585.5,1027C4606.73,1039.16 4624.23,1034.99 4638,1014.5C4647.7,998.872 4646.36,984.205 4634,970.5C4616.75,954.806 4599.25,939.472 4581.5,924.5Z" style="fill:rgb(254,254,254);"/>
                        </g>
                        <g transform="matrix(0.907357,0,0,1,7480.22,0.439363)">
                            <path d="M1051.5,1019.5C1122.83,1089.99 1193.66,1160.99 1264,1232.5C1264.67,1233.17 1264.67,1233.83 1264,1234.5C1246.17,1252.33 1228.33,1270.17 1210.5,1288C1209.83,1288.67 1209.17,1288.67 1208.5,1288C1138,1217.5 1067.5,1147 997,1076.5C996.333,1075.5 996.333,1074.5 997,1073.5C1015.67,1055.99 1033.84,1037.99 1051.5,1019.5Z" style="fill:rgb(254,254,254);"/>
                        </g>
                        <g transform="matrix(0.907357,0,0,1,7480.22,0.439363)">
                            <path d="M4817.5,1057.5C4870.68,1115.18 4923.35,1173.35 4975.5,1232C4961.03,1246.13 4946.2,1259.96 4931,1273.5C4895.62,1234.96 4860.45,1196.29 4825.5,1157.5C4810.41,1170.71 4795.74,1184.38 4781.5,1198.5C4808.46,1229.46 4835.8,1260.13 4863.5,1290.5C4850.38,1302.46 4837.38,1314.62 4824.5,1327C4823.5,1327.5 4822.5,1328 4821.5,1328.5C4793.5,1298.17 4765.5,1267.83 4737.5,1237.5C4723.17,1250.33 4708.83,1263.17 4694.5,1276C4692.99,1276.84 4692.49,1278 4693,1279.5C4729.35,1319.02 4765.52,1358.68 4801.5,1398.5C4786.83,1412.51 4771.83,1426.17 4756.5,1439.5C4701.96,1380.46 4647.96,1320.96 4594.5,1261C4669.01,1193.32 4743.34,1125.49 4817.5,1057.5Z" style="fill:rgb(254,254,254);"/>
                        </g>
                        <g transform="matrix(0.907357,0,0,1,7480.22,0.439363)">
                            <path d="M850.5,1236.5C851.922,1236.71 853.255,1237.21 854.5,1238C915,1289.17 975.5,1340.33 1036,1391.5C1068.67,1352.83 1101.33,1314.17 1134,1275.5C1149.21,1289.04 1164.71,1302.21 1180.5,1315C1131,1373.83 1081.5,1432.67 1032,1491.5C955.333,1426.83 878.667,1362.17 802,1297.5C801.333,1296.5 801.333,1295.5 802,1294.5C818.777,1275.57 834.944,1256.23 850.5,1236.5Z" style="fill:rgb(254,254,254);"/>
                        </g>
                        <g transform="matrix(0.907357,0,0,1,7480.22,0.439363)">
                            <path d="M4983.5,1322.5C5017.07,1321.96 5046.07,1333.13 5070.5,1356C5106.09,1389.67 5127.59,1430.84 5135,1479.5C5136.13,1494.63 5135.29,1509.63 5132.5,1524.5C5111.17,1523.93 5089.84,1523.59 5068.5,1523.5C5077.07,1480.67 5066.9,1443.01 5038,1410.5C5029.47,1400.31 5018.64,1395.81 5005.5,1397C4992.38,1402.07 4987.21,1411.57 4990,1425.5C4992.13,1432.89 4994.46,1440.23 4997,1447.5C5005.67,1468.17 5014.33,1488.83 5023,1509.5C5030.74,1530.25 5033.08,1551.59 5030,1573.5C5021.88,1598.96 5005.38,1616.8 4980.5,1627C4958.3,1635.26 4935.97,1635.59 4913.5,1628C4896.3,1620.47 4880.96,1610.14 4867.5,1597C4830.89,1559.54 4809.39,1514.71 4803,1462.5C4802.07,1448.43 4802.57,1434.43 4804.5,1420.5L4869.5,1420.5C4861.87,1465.98 4872.37,1506.65 4901,1542.5C4906.82,1549.82 4913.98,1555.32 4922.5,1559C4944.12,1561.92 4954.29,1552.42 4953,1530.5C4952,1526.83 4951,1523.17 4950,1519.5C4938.77,1493.72 4928.11,1467.72 4918,1441.5C4897.15,1377.84 4918.98,1338.18 4983.5,1322.5Z" style="fill:rgb(253,254,254);"/>
                        </g>
                        <g transform="matrix(0.907357,0,0,1,7480.22,0.439363)">
                            <path d="M765.5,1412.5C784.838,1411.2 803.838,1413.03 822.5,1418C866.635,1431.82 902.802,1456.98 931,1493.5C958.132,1535.07 961.799,1578.73 942,1624.5C928.813,1653.39 909.979,1677.89 885.5,1698C843.813,1726.57 799.48,1731.24 752.5,1712C720.19,1698.34 692.356,1678.51 669,1652.5C636.482,1611.72 629.149,1566.72 647,1517.5C660.313,1484.2 681.147,1456.7 709.5,1435C726.58,1423.28 745.247,1415.78 765.5,1412.5ZM757.5,1487.5C742.036,1491.16 729.536,1499.5 720,1512.5C703.105,1536.17 702.105,1560.51 717,1585.5C740.374,1614.96 770.207,1635.12 806.5,1646C833.446,1651.98 855.279,1644.15 872,1622.5C887.895,1600.52 889.561,1577.52 877,1553.5C862.608,1533.11 844.442,1516.94 822.5,1505C802.529,1492.76 780.863,1486.92 757.5,1487.5Z" style="fill:rgb(254,254,254);"/>
                        </g>
                        <g transform="matrix(0.907357,0,0,1,7480.22,0.439363)">
                            <path d="M5194.5,1536.5C5239.31,1616.78 5283.65,1697.45 5327.5,1778.5C5309.91,1788.88 5292.08,1798.88 5274,1808.5C5258.49,1779.48 5242.49,1750.82 5226,1722.5C5155.77,1760.7 5085.6,1799.03 5015.5,1837.5C5002.7,1814.73 4990.03,1791.9 4977.5,1769C4981.8,1765.51 4986.46,1762.51 4991.5,1760C5057.42,1724.4 5123.09,1688.4 5188.5,1652C5172.71,1623.58 5157.04,1595.08 5141.5,1566.5C5159.03,1556.23 5176.7,1546.23 5194.5,1536.5Z" style="fill:rgb(253,254,254);"/>
                        </g>
                        <g transform="matrix(0.907357,0,0,1,7480.22,0.439363)">
                            <path d="M4806.5,1556.5C4820.63,1574.49 4834.3,1592.99 4847.5,1612C4818.62,1619.8 4789.62,1626.8 4760.5,1633C4750.59,1619.84 4740.92,1606.51 4731.5,1593C4756.65,1580.91 4781.65,1568.74 4806.5,1556.5Z" style="fill:rgb(253,253,253);"/>
                        </g>
                        <g transform="matrix(0.907357,0,0,1,7480.22,0.439363)">
                            <path d="M588.5,1701.5C624.818,1699.66 655.984,1711.32 682,1736.5C703.553,1761.91 710.219,1790.91 702,1823.5C699.131,1834.77 695.464,1845.77 691,1856.5C681.93,1875.88 672.763,1895.21 663.5,1914.5C693.37,1929.6 723.37,1944.44 753.5,1959C742.814,1982.87 731.481,2006.37 719.5,2029.5C628.433,1986.99 537.766,1943.82 447.5,1900C470.064,1849.8 493.898,1800.3 519,1751.5C535.508,1725.35 558.674,1708.68 588.5,1701.5ZM587.5,1779.5C578.029,1782.17 570.195,1787.51 564,1795.5C553.225,1814.55 543.392,1834.05 534.5,1854C559.045,1866.11 583.712,1877.94 608.5,1889.5C619.281,1870.36 628.448,1850.36 636,1829.5C639.268,1817.99 637.601,1807.33 631,1797.5C619.333,1784.75 604.833,1778.75 587.5,1779.5Z" style="fill:rgb(254,254,254);"/>
                        </g>
                        <g transform="matrix(0.907357,0,0,1,7480.22,0.439363)">
                            <path d="M5351.5,1839.5C5362.34,1863.32 5373,1887.32 5383.5,1911.5C5291.38,1952.05 5199.04,1992.39 5106.5,2032.5C5096.24,2009.58 5086.08,1986.58 5076,1963.5C5075.28,1961.89 5075.45,1960.39 5076.5,1959C5168.39,1919.43 5260.06,1879.6 5351.5,1839.5Z" style="fill:rgb(253,254,254);"/>
                        </g>
                    </g>
                    <g transform="matrix(0.907357,0,0,1,7480.22,0.439363)">
                        <path d="M2789.5,563.5C2801.83,564.167 2814.17,564.833 2826.5,565.5C2813.82,565.832 2801.15,565.499 2788.5,564.5C2788.62,563.893 2788.96,563.56 2789.5,563.5Z" style="fill:rgb(176,184,196);"/>
                    </g>
                    <g>
                        <g transform="matrix(0.907357,0,0,1,7480.22,0.439363)">
                            <path d="M2795.5,1345.5C2879.83,1345.33 2964.17,1345.5 3048.5,1346C3076.17,1347.5 3102.5,1354.17 3127.5,1366L3286.5,1459C3651.4,1509.68 3991.4,1629.51 4306.5,1818.5C4307.67,1835.49 4307.83,1852.49 4307,1869.5C4175.52,1920.55 4041.35,1963.38 3904.5,1998C3248.83,1998.67 2593.17,1998.67 1937.5,1998C1801.62,1963.36 1668.29,1920.7 1537.5,1870C1536.18,1852.9 1536.18,1835.73 1537.5,1818.5C1852.45,1628.92 2192.45,1509.09 2557.5,1459C2613.57,1425.93 2669.91,1393.27 2726.5,1361C2748.83,1352.3 2771.83,1347.14 2795.5,1345.5ZM2540.5,1499.5C2636.62,1485.21 2733.29,1476.88 2830.5,1474.5C2928.94,1475.72 3027.27,1479.56 3125.5,1486C3171,1485.81 3216.33,1488.47 3261.5,1494C3375.44,1509.52 3488.11,1531.52 3599.5,1560C3794.57,1614.35 3984.9,1681.35 4170.5,1761C3891.05,1613.4 3594.71,1518.4 3281.5,1476C3228.66,1444.75 3175.66,1413.75 3122.5,1383C3098.28,1370.86 3072.61,1364.19 3045.5,1363C2963.17,1362.33 2880.83,1362.33 2798.5,1363C2774.87,1363.79 2752.21,1368.79 2730.5,1378C2674.33,1410.92 2618,1443.59 2561.5,1476C2201.3,1524.67 1865.64,1642.17 1554.5,1828.5C1553.5,1838.48 1553.17,1848.48 1553.5,1858.5C1583.13,1869.31 1612.79,1880.14 1642.5,1891C1732.96,1923.16 1824.63,1950.82 1917.5,1974C1893.22,1962.2 1869.89,1948.86 1847.5,1934C1831.74,1922.91 1817.91,1909.75 1806,1894.5C1788.31,1868.38 1791.15,1844.88 1814.5,1824C2238.26,1766.96 2663.93,1742.96 3091.5,1752C3457.03,1758.69 3820.36,1790.19 4181.5,1846.5C4182.79,1846.74 4183.79,1846.4 4184.5,1845.5C3868.09,1790.78 3549.42,1755.95 3228.5,1741C2995.84,1729.87 2763.17,1729.87 2530.5,1741C2210.41,1755.51 1892.41,1789.34 1576.5,1842.5C1575.83,1842.17 1575.17,1841.83 1574.5,1841.5C1589.97,1831.26 1605.97,1821.76 1622.5,1813C1741.3,1792.85 1860.63,1776.52 1980.5,1764C2120.75,1749.52 2261.09,1735.85 2401.5,1723C2482.29,1713.7 2561.96,1698.7 2640.5,1678C2693.98,1663.59 2744.65,1642.59 2792.5,1615C2821.29,1598.02 2844.79,1575.52 2863,1547.5C2873.49,1528.88 2878.32,1508.88 2877.5,1487.5C2765.98,1487.1 2654.64,1491.43 2543.5,1500.5C2537.72,1502.11 2531.72,1502.61 2525.5,1502C2530.47,1500.92 2535.47,1500.09 2540.5,1499.5Z" style="fill:rgb(19,44,80);"/>
                        </g>
                        <g transform="matrix(0.907357,0,0,1,7480.22,0.439363)">
                            <path d="M2914.5,1463.5C2906.83,1462.83 2899.17,1462.17 2891.5,1461.5C2914.43,1440.75 2925.1,1414.75 2923.5,1383.5C2963.5,1383.33 3003.5,1383.5 3043.5,1384C3066.95,1384.74 3089.28,1390.07 3110.5,1400C3163,1430.41 3215.33,1461.08 3267.5,1492C3150.46,1475.72 3032.79,1466.22 2914.5,1463.5Z" style="fill:rgb(20,44,80);"/>
                        </g>
                        <g transform="matrix(0.907357,0,0,1,7480.22,0.439363)">
                            <path d="M4448.5,2272.5C4447.5,2338.33 4447.17,2404.33 4447.5,2470.5L4587.5,2470.5L4587.5,2590.5L1256.5,2590.5L1256.5,2470.5L1396.5,2470.5C1396.83,2404.33 1396.5,2338.33 1395.5,2272.5L1294.5,2272.5L1294.5,2151.5C1259.14,2152.83 1227.14,2143.33 1198.5,2123C1179.3,2106.45 1167.47,2085.62 1163,2060.5C1161.7,2048.87 1161.2,2037.21 1161.5,2025.5L4682.5,2025.5C4684.15,2098.36 4648.82,2139.86 4576.5,2150C4567.52,2150.97 4558.52,2151.47 4549.5,2151.5L4549.5,2272.5L4448.5,2272.5ZM3161.5,2169.5L1312.5,2169.5L1312.5,2254.5C2385,2254.83 3457.33,2254.5 4529.5,2253.5C4524.09,2250.47 4518.43,2247.97 4512.5,2246C4477.22,2235.14 4441.22,2227.48 4404.5,2223C4362.92,2217.68 4321.25,2213.01 4279.5,2209C4173.63,2200.31 4067.63,2193.64 3961.5,2189C3694.94,2178.3 3428.27,2171.8 3161.5,2169.5ZM4568.5,2572.5C4555.83,2567.91 4542.83,2564.41 4529.5,2562C4485.01,2555.46 4440.34,2550.46 4395.5,2547C4295.91,2539.97 4196.24,2534.3 4096.5,2530C3805.25,2519.01 3513.92,2511.01 3222.5,2506C2572.88,2495.26 1923.21,2489.1 1273.5,2487.5L1273.5,2573.5C2372,2573.83 3470.33,2573.5 4568.5,2572.5ZM1481.5,2272.5L1481.5,2417.5L1890.5,2417.5L1890.5,2272.5L1481.5,2272.5ZM2470.5,2272.5L2470.5,2417.5L2879.5,2417.5L2879.5,2272.5L2470.5,2272.5ZM2384.5,2417.5L2384.5,2272.5L1976.5,2272.5L1976.5,2417.5L2384.5,2417.5ZM3867.5,2417.5L3867.5,2272.5L3459.5,2272.5L3459.5,2417.5L3867.5,2417.5ZM2964.5,2272.5L2964.5,2417.5L3373.5,2417.5L3373.5,2272.5L2964.5,2272.5ZM3953.5,2272.5L3953.5,2417.5L4362.5,2417.5L4362.5,2272.5L3953.5,2272.5Z" style="fill:rgb(19,44,80);"/>
                        </g>
                        <g transform="matrix(0.907357,0,0,1,7480.22,0.439363)">
                            <rect x="1396.5" y="2617.5" width="147" height="657" style="fill:rgb(19,44,80);"/>
                        </g>
                        <g transform="matrix(0.907357,0,0,1,7480.22,0.439363)">
                            <rect x="1660.5" y="2617.5" width="147" height="657" style="fill:rgb(19,44,80);"/>
                        </g>
                        <g transform="matrix(0.907357,0,0,1,7480.22,0.439363)">
                            <rect x="1925.5" y="2617.5" width="146" height="657" style="fill:rgb(19,44,80);"/>
                        </g>
                        <g transform="matrix(0.907357,0,0,1,7480.22,0.439363)">
                            <rect x="2188.5" y="2617.5" width="147" height="657" style="fill:rgb(19,44,80);"/>
                        </g>
                        <g transform="matrix(0.907357,0,0,1,7480.22,0.439363)">
                            <rect x="2452.5" y="2617.5" width="147" height="657" style="fill:rgb(19,44,80);"/>
                        </g>
                        <g transform="matrix(0.907357,0,0,1,7480.22,0.439363)">
                            <rect x="2716.5" y="2617.5" width="147" height="657" style="fill:rgb(19,44,80);"/>
                        </g>
                        <g transform="matrix(0.907357,0,0,1,7480.22,0.439363)">
                            <rect x="2980.5" y="2617.5" width="147" height="657" style="fill:rgb(19,44,80);"/>
                        </g>
                        <g transform="matrix(0.907357,0,0,1,7480.22,0.439363)">
                            <rect x="3244.5" y="2617.5" width="147" height="657" style="fill:rgb(19,44,80);"/>
                        </g>
                        <g transform="matrix(0.907357,0,0,1,7480.22,0.439363)">
                            <rect x="3508.5" y="2617.5" width="147" height="657" style="fill:rgb(19,44,80);"/>
                        </g>
                        <g transform="matrix(0.907357,0,0,1,7480.22,0.439363)">
                            <rect x="3772.5" y="2617.5" width="147" height="657" style="fill:rgb(19,44,80);"/>
                        </g>
                        <g transform="matrix(0.907357,0,0,1,7480.22,0.439363)">
                            <rect x="4036.5" y="2617.5" width="147" height="657" style="fill:rgb(19,44,80);"/>
                        </g>
                        <g transform="matrix(0.907357,0,0,1,7480.22,0.439363)">
                            <rect x="4300.5" y="2617.5" width="147" height="657" style="fill:rgb(19,44,80);"/>
                        </g>
                        <g transform="matrix(0.907357,0,0,1,7480.22,0.439363)">
                            <rect x="1289.5" y="3301.5" width="3254" height="120" style="fill:rgb(19,44,80);"/>
                        </g>
                        <g transform="matrix(0.907357,0,0,1,7480.22,0.439363)">
                            <rect x="1396.5" y="3448.5" width="147" height="394" style="fill:rgb(19,44,80);"/>
                        </g>
                        <g transform="matrix(0.907357,0,0,1,7480.22,0.439363)">
                            <rect x="1660.5" y="3448.5" width="147" height="394" style="fill:rgb(19,44,80);"/>
                        </g>
                        <g transform="matrix(0.907357,0,0,1,7480.22,0.439363)">
                            <rect x="1924.5" y="3448.5" width="147" height="394" style="fill:rgb(19,44,80);"/>
                        </g>
                        <g transform="matrix(0.907357,0,0,1,7480.22,0.439363)">
                            <rect x="2188.5" y="3448.5" width="147" height="394" style="fill:rgb(19,44,80);"/>
                        </g>
                        <g transform="matrix(0.907357,0,0,1,7480.22,0.439363)">
                            <rect x="2452.5" y="3448.5" width="147" height="394" style="fill:rgb(19,44,80);"/>
                        </g>
                        <g transform="matrix(0.907357,0,0,1,7480.22,0.439363)">
                            <rect x="2716.5" y="3448.5" width="147" height="394" style="fill:rgb(19,44,80);"/>
                        </g>
                        <g transform="matrix(0.907357,0,0,1,7480.22,0.439363)">
                            <rect x="2980.5" y="3448.5" width="147" height="394" style="fill:rgb(19,44,80);"/>
                        </g>
                        <g transform="matrix(0.907357,0,0,1,7480.22,0.439363)">
                            <rect x="3244.5" y="3448.5" width="147" height="394" style="fill:rgb(19,44,80);"/>
                        </g>
                        <g transform="matrix(0.907357,0,0,1,7480.22,0.439363)">
                            <rect x="3508.5" y="3448.5" width="147" height="394" style="fill:rgb(19,44,80);"/>
                        </g>
                        <g transform="matrix(0.907357,0,0,1,7480.22,0.439363)">
                            <rect x="3772.5" y="3448.5" width="147" height="394" style="fill:rgb(19,44,80);"/>
                        </g>
                        <g transform="matrix(0.907357,0,0,1,7480.22,0.439363)">
                            <rect x="4036.5" y="3448.5" width="147" height="394" style="fill:rgb(19,44,80);"/>
                        </g>
                        <g transform="matrix(0.907357,0,0,1,7480.22,0.439363)">
                            <rect x="4300.5" y="3448.5" width="147" height="394" style="fill:rgb(19,44,80);"/>
                        </g>
                        <g transform="matrix(0.907357,0,0,1,7480.22,0.439363)">
                            <rect x="1251.5" y="3869.5" width="3330" height="120" style="fill:rgb(19,44,80);"/>
                        </g>
                    </g>
                    <g transform="matrix(0.907357,0,0,1,7480.22,0.439363)">
                        <path d="M2891.5,1461.5C2899.17,1462.17 2906.83,1462.83 2914.5,1463.5C2906.47,1463.83 2898.47,1463.5 2890.5,1462.5C2890.62,1461.89 2890.96,1461.56 2891.5,1461.5Z" style="fill:rgb(95,111,136);"/>
                    </g>
                    <g transform="matrix(0.907357,0,0,1,7480.22,0.439363)">
                        <path d="M2540.5,1499.5C2541.21,1500.4 2542.21,1500.74 2543.5,1500.5C2537.72,1502.11 2531.72,1502.61 2525.5,1502C2530.47,1500.92 2535.47,1500.09 2540.5,1499.5Z" style="fill:rgb(96,111,136);"/>
                    </g>
                    <g transform="matrix(0.907357,0,0,1,7480.22,0.439363)">
                        <path d="M4184.5,1845.5C4196.12,1847.76 4207.79,1849.76 4219.5,1851.5C4219.5,1852.17 4219.17,1852.5 4218.5,1852.5C4205.99,1850.8 4193.65,1848.8 4181.5,1846.5C4182.79,1846.74 4183.79,1846.4 4184.5,1845.5Z" style="fill:rgb(184,192,202);"/>
                    </g>
                    <g transform="matrix(0.907357,0,0,1,7480.22,0.439363)">
                        <path d="M4219.5,1851.5C4229.11,1853.39 4238.78,1855.22 4248.5,1857C4238.26,1856.46 4228.26,1854.96 4218.5,1852.5C4219.17,1852.5 4219.5,1852.17 4219.5,1851.5Z" style="fill:rgb(121,135,156);"/>
                    </g>
                    <g transform="matrix(0.907357,0,0,1,7480.22,0.439363)">
                        <path d="M3161.5,2169.5L1312.5,2169.5L1312.5,2254.5C2385,2254.83 3457.33,2254.5 4529.5,2253.5C4530.29,2253.78 4530.96,2254.28 4531.5,2255C3458.17,2255.5 2384.83,2255.67 1311.5,2255.5L1311.5,2168.5C1928.33,2168.17 2545,2168.5 3161.5,2169.5Z" style="fill:rgb(195,201,210);"/>
                    </g>
                    <g transform="matrix(0.907357,0,0,1,7480.22,0.439363)">
                        <path d="M2384.5,2417.5L2384.5,2272.5L1976.5,2272.5L1976.5,2417.5C1975.5,2369 1975.17,2320.34 1975.5,2271.5L2385.5,2271.5C2385.83,2320.34 2385.5,2369 2384.5,2417.5Z" style="fill:rgb(115,129,151);"/>
                    </g>
                    <g transform="matrix(0.907357,0,0,1,7480.22,0.439363)">
                        <path d="M3867.5,2417.5L3867.5,2272.5L3459.5,2272.5L3459.5,2417.5C3458.5,2369 3458.17,2320.34 3458.5,2271.5L3868.5,2271.5C3868.83,2320.34 3868.5,2369 3867.5,2417.5Z" style="fill:rgb(115,129,151);"/>
                    </g>
                    <g transform="matrix(0.907357,0,0,1,7480.22,0.439363)">
                        <path d="M1395.5,2272.5C1396.5,2338.33 1396.83,2404.33 1396.5,2470.5L1256.5,2470.5C1302.66,2469.5 1349,2469.17 1395.5,2469.5L1395.5,2272.5Z" style="fill:rgb(195,201,210);"/>
                    </g>
                    <g transform="matrix(0.907357,0,0,1,7480.22,0.439363)">
                        <path d="M4448.5,2272.5L4448.5,2469.5C4495,2469.17 4541.34,2469.5 4587.5,2470.5L4447.5,2470.5C4447.17,2404.33 4447.5,2338.33 4448.5,2272.5Z" style="fill:rgb(195,201,210);"/>
                    </g>
                    <g transform="matrix(0.907357,0,0,1,7480.22,0.439363)">
                        <path d="M4568.5,2572.5C4569.04,2572.56 4569.38,2572.89 4569.5,2573.5C4020.17,2573.83 3470.83,2574.17 2921.5,2574.5C2372,2574.5 1822.67,2574.17 1273.5,2573.5C2372,2573.83 3470.33,2573.5 4568.5,2572.5Z" style="fill:rgb(77,96,123);"/>
                    </g>
                    <g transform="matrix(0.907357,0,0,1,7480.22,0.439363)">
                        <path d="M2071.5,2617.5L1925.5,2617.5L1925.5,3274.5L2071.5,3274.5C2022.67,3275.5 1973.67,3275.83 1924.5,3275.5L1924.5,2616.5C1973.67,2616.17 2022.67,2616.5 2071.5,2617.5Z" style="fill:rgb(92,109,134);"/>
                    </g>
                    <g transform="matrix(0.907357,0,0,1,7480.22,0.439363)">
                        <path d="M4543.5,3301.5C4544.5,3341.66 4544.83,3382 4544.5,3422.5C3459.33,3422.83 2374.33,3422.5 1289.5,3421.5L4543.5,3421.5L4543.5,3301.5Z" style="fill:rgb(134,147,165);"/>
                    </g>
                    <g transform="matrix(2.76386,0,0,1.11696,2979.7,-522.253)">
                        <rect x="2420.5" y="4385.5" width="334" height="167" style="fill:white;"/>
                    </g>
                    <g transform="matrix(0.907357,0,0,1,7480.22,0.439363)">
                        <rect x="2420.5" y="4385.5" width="334" height="167" style="fill:rgb(19,44,80);"/>
                    </g>
                    <g transform="matrix(0.907357,0,0,1,7480.22,0.439363)">
                        <rect x="2754.5" y="4385.5" width="334" height="167" style="fill:rgb(237,209,2);"/>
                    </g>
                    <g transform="matrix(0.907357,0,0,1,7480.22,0.439363)">
                        <rect x="3088.5" y="4385.5" width="335" height="167" style="fill:rgb(216,46,42);"/>
                    </g>
                    <g>
                        <g transform="matrix(0.907357,0,0,1,7480.22,0.439363)">
                            <path d="M3282.5,5239.5C3304.86,5237.29 3326.52,5240.13 3347.5,5248C3385.39,5266.95 3400.56,5297.45 3393,5339.5C3387.06,5358.44 3375.56,5372.94 3358.5,5383C3409.67,5391.49 3433.5,5421.65 3430,5473.5C3424.26,5497.56 3411.1,5516.4 3390.5,5530C3344.95,5556.24 3296.28,5564.58 3244.5,5555C3198.91,5542.07 3177.41,5511.9 3180,5464.5C3181.57,5452.43 3186.24,5441.76 3194,5432.5L3208.5,5418C3214,5414.08 3219.66,5410.42 3225.5,5407C3186.36,5396.86 3166.03,5371.52 3164.5,5331C3165.68,5305.64 3176.34,5285.31 3196.5,5270C3222.37,5251.87 3251.03,5241.7 3282.5,5239.5ZM3304.5,5420.5C3293.27,5421.85 3282.6,5425.35 3272.5,5431C3259.52,5439.81 3254.35,5451.97 3257,5467.5C3259.51,5483.67 3268.67,5493.84 3284.5,5498C3302.99,5500.47 3320.32,5497.14 3336.5,5488C3354.3,5471.12 3356.13,5452.62 3342,5432.5C3331.2,5423.56 3318.7,5419.56 3304.5,5420.5ZM3275.5,5299.5C3268.94,5301.08 3262.6,5303.58 3256.5,5307C3248.23,5312.38 3243.06,5319.88 3241,5329.5C3238.85,5348.31 3246.35,5361.48 3263.5,5369C3273.14,5370.9 3282.81,5370.9 3292.5,5369C3308.19,5365.98 3318.02,5356.81 3322,5341.5C3324.39,5325.79 3319.22,5313.29 3306.5,5304C3296.57,5300 3286.23,5298.5 3275.5,5299.5Z" style="fill:rgb(253,254,254);"/>
                        </g>
                        <g transform="matrix(0.907357,0,0,1,7480.22,0.439363)">
                            <path d="M2462.5,5294.5C2463.48,5291.71 2463.81,5288.71 2463.5,5285.5C2469.36,5285.82 2475.02,5285.49 2480.5,5284.5C2504.51,5281.11 2527.18,5273.61 2548.5,5262C2554.19,5258.49 2559.52,5254.49 2564.5,5250C2566.83,5249.33 2569.17,5249.33 2571.5,5250C2590.44,5253.6 2609.44,5256.77 2628.5,5259.5C2611.72,5361.54 2594.72,5463.54 2577.5,5565.5C2551.92,5561.49 2526.42,5557.16 2501,5552.5C2512.91,5477.04 2525.24,5401.71 2538,5326.5C2514.25,5342.7 2488.09,5350.7 2459.5,5350.5C2460.88,5331.88 2461.88,5313.21 2462.5,5294.5Z" style="fill:rgb(253,253,254);"/>
                        </g>
                        <g transform="matrix(0.907357,0,0,1,7480.22,0.439363)">
                            <path d="M3087.5,5269.5L3099.5,5269.5C3104.79,5372.54 3110.79,5475.54 3117.5,5578.5C3091.5,5580.17 3065.5,5581.83 3039.5,5583.5C3034.88,5507.18 3030.38,5430.84 3026,5354.5C3006.29,5375.61 2982.46,5389.94 2954.5,5397.5C2950.74,5375.18 2947.07,5352.85 2943.5,5330.5C2976.64,5323.18 3004.81,5307.18 3028,5282.5C3030.03,5279.97 3031.86,5277.3 3033.5,5274.5C3051.61,5272.5 3069.61,5270.83 3087.5,5269.5Z" style="fill:rgb(254,254,254);"/>
                        </g>
                        <g transform="matrix(0.907357,0,0,1,7480.22,0.439363)">
                            <path d="M2766.5,5270.5C2794.1,5268.75 2821.1,5271.92 2847.5,5280C2903.15,5302.47 2919.98,5341.64 2898,5397.5C2887.83,5412.68 2874,5423.18 2856.5,5429C2909.65,5452.45 2924.15,5490.61 2900,5543.5C2887.4,5562.08 2870.23,5574.58 2848.5,5581C2830.96,5586.78 2812.96,5589.28 2794.5,5588.5C2759.47,5590.17 2726.81,5582.33 2696.5,5565C2658.51,5536.68 2649.34,5500.84 2669,5457.5C2682.25,5439.61 2699.75,5427.77 2721.5,5422C2687.05,5404.81 2672.55,5376.98 2678,5338.5C2685.75,5308.08 2704.59,5287.91 2734.5,5278C2745.11,5274.65 2755.78,5272.15 2766.5,5270.5ZM2783.5,5329.5C2772.72,5330.97 2763.89,5335.97 2757,5344.5C2748.4,5360.78 2749.9,5375.95 2761.5,5390C2774.21,5399.22 2788.38,5402.38 2804,5399.5C2823.47,5395.69 2832.97,5383.86 2832.5,5364C2833.11,5353.22 2829.11,5344.55 2820.5,5338C2809.24,5330.78 2796.91,5327.95 2783.5,5329.5ZM2772.5,5453.5C2757.09,5455.29 2746.26,5463.29 2740,5477.5C2734.66,5495.82 2739.5,5510.66 2754.5,5522C2768.71,5528.98 2783.71,5531.32 2799.5,5529C2812.66,5527.35 2822.49,5520.85 2829,5509.5C2837.29,5489.87 2833.12,5473.71 2816.5,5461C2802.61,5454.28 2787.94,5451.78 2772.5,5453.5Z" style="fill:rgb(254,254,254);"/>
                        </g>
                    </g>
                    <g transform="matrix(0.907357,0,0,1,7480.22,0.439363)">
                        <path d="M2480.5,5284.5C2475.02,5285.49 2469.36,5285.82 2463.5,5285.5C2463.81,5288.71 2463.48,5291.71 2462.5,5294.5L2462.5,5284.5L2480.5,5284.5Z" style="fill:rgb(111,126,148);"/>
                    </g>
                </g>
            </g>
        </g>
    </g>
</svg>
