<?xml version="1.0" encoding="UTF-8"?>
<!DOCTYPE svg PUBLIC "-//W3C//DTD SVG 1.1//EN" "http://www.w3.org/Graphics/SVG/1.1/DTD/svg11.dtd">
<!-- Creator: CorelDRAW 2019 (64-Bit) -->
<svg xmlns="http://www.w3.org/2000/svg" xml:space="preserve" width="159.665mm" height="107.865mm" version="1.1" style="shape-rendering:geometricPrecision; text-rendering:geometricPrecision; image-rendering:optimizeQuality; fill-rule:evenodd; clip-rule:evenodd"
viewBox="0 0 181.8931 122.8817"
 xmlns:xlink="http://www.w3.org/1999/xlink"
 xmlns:xodm="http://www.corel.com/coreldraw/odm/2003">
 <defs>
  <style type="text/css">
   <![CDATA[
    .fil0 {fill:#DBB55E}
   ]]>
  </style>
 </defs>
 <g id="Layer_x0020_1">
  <metadata id="CorelCorpID_0Corel-Layer"/>
  <path class="fil0" d="M66.9482 20.206c0,4.3943 4.4507,6.9622 11.8707,6.9622 15.9817,0 28.9365,-8.0487 43.6635,-8.0487 4.8499,0 7.2467,1.4294 7.2467,4.3952 0,5.9943 -12.6122,10.5601 -23.7425,11.301 -1.9977,-3.0252 -6.2778,-4.6225 -11.5866,-4.6225 -15.2386,0 -26.6545,15.1237 -26.6545,28.5942 0,8.3322 4.8523,13.0689 13.2988,13.0689 15.1825,0 25.2266,-15.2944 25.8548,-26.3679 -11.5847,0.6849 -19.4054,5.8229 -22.8295,17.0655 -0.7433,2.3962 -1.3698,3.9958 -2.9687,3.9958 -0.8563,0 -1.8811,-0.4013 -1.8811,-2.2842 0,-3.4237 5.4779,-8.7869 8.1025,-14.5538 2.1127,-4.6222 2.5678,-14.2111 6.2778,-14.2111 1.0856,0 1.7143,0.2863 1.7143,1.827 0,3.2527 -3.9374,8.8458 -5.3655,11.7583 3.6512,-3.3116 9.9292,-5.537 16.6643,-5.7645 14.1547,-0.5722 28.7079,-7.8207 28.7079,-19.4619 -0.1123,-7.1923 -5.4206,-11.4157 -14.2667,-11.4157 -12.0448,0 -22.7735,8.7329 -34.3581,8.7329 -2.9126,0 -4.4539,-0.9706 -4.4539,-2.7415 0,-7.4754 29.1098,-1.3126 29.1098,-13.4121 0,-3.5389 -4.8515,-4.6225 -6.7912,-5.023 0.6283,0.6283 1.14,1.4842 1.14,2.3992 0,12.2693 -38.7528,4.1095 -38.7528,17.8068zm33.1596 68.0334l0 0 -1.7681 4.336 5.5342 0c2.5679,0 4.3389,-1.3714 5.4222,-4.1106l1.712 -4.3384 -5.4221 0c-2.3969,0 -4.2799,1.2571 -5.4783,4.113zm-57.0165 3.8227l0 0c2.8543,0 4.85,-1.4281 6.1063,-4.5682l1.3699 -3.3675 -32.4185 0c-5.5908,0 -18.1489,7.4223 -18.1489,12.3305 0.1128,3.7101 3.3676,8.046 6.5637,10.2156l5.1947 -8.2741c-1.4279,-0.8582 -3.084,-2.1129 -3.1401,-3.7684 0,-1.5406 1.7122,-2.5678 3.1963,-2.5678l9.4746 0 -12.2724 30.2494 8.8482 0c1.2547,0 2.1105,-0.6847 2.7394,-2.0545l11.4719 -28.195 11.0151 0zm138.8018 0.1691l0 0 0 0.1149c-1.0808,7.7059 -6.1598,10.4448 -15.1225,11.6435 -4.0547,0.5133 -8.5604,1.7705 -11.301,3.8243 0.5705,-1.3132 3.4812,-5.4238 3.4812,-7.7619 0,-1.0838 -0.3415,-1.4846 -1.3128,-1.4846 -2.7391,0 -2.9105,6.278 -4.6785,10.1589 -1.5433,3.3675 -5.1945,6.7353 -5.1945,9.303 0,1.1422 0.5114,1.7703 1.4827,1.7703 1.2548,0 1.7693,-1.1981 2.2248,-2.8535 1.8862,-6.5079 8.278,-10.5015 14.8428,-10.9026 -0.7997,7.1924 -7.134,16.838 -17.1239,16.838 -5.5344,0 -8.5058,-3.4242 -8.5058,-8.7898 0,-4.3382 1.5981,-8.5616 4.0549,-11.5868 -1.3702,0.5722 -3.5981,1.1439 -5.1946,1.1439 -0.9712,0 -1.9986,-0.1167 -1.9986,-0.1167 0,10.0463 -10.2739,19.2928 -20.2029,19.2928 -6.1063,0 -9.1315,-3.426 -8.2757,-8.9041 -5.1358,5.7079 -10.7877,8.9607 -15.5243,8.9607 -4.9088,0 -5.5349,-3.1967 -4.2803,-7.6499 -4.9646,5.1381 -9.8189,7.6499 -14.2134,7.6499 -5.3071,0 -5.6497,-3.8815 -3.6518,-8.7332l3.3117 -8.0483c0.6259,-1.5411 0,-2.5679 -1.3136,-2.5679 -4.3384,0 -7.8185,7.6493 -10.7871,14.6686 -1.2547,2.9687 -2.7394,4.1107 -5.1924,4.1107l-5.8789 0 3.7095 -9.1321c-6.1647,6.3345 -13.184,9.6455 -19.5767,9.6455 -4.4509,0 -6.9061,-2.1129 -7.0212,-6.1065 -0.3983,-10.5601 9.5329,-20.4331 20.4332,-20.4331l6.1647 0 -1.5988 3.7666c-0.9125,2.1106 -2.2822,3.1379 -4.28,3.1379l-1.7705 0c-4.85,0 -9.1858,5.194 -9.1858,9.5328 0,2.2815 1.2548,3.4236 3.7636,3.4236 3.769,0 13.5831,-4.1106 17.2366,-13.1839l5.9353 -14.723c1.3697,-3.426 2.9692,-4.113 5.0821,-4.113l5.9914 0 -7.9355 19.3493c2.685,-3.0252 7.4788,-7.7037 12.7317,-7.7037 4.9641,0 5.0185,3.3676 3.2521,8.332l-3.4843 8.5621c-0.7974,1.9956 -0.1127,2.967 1.428,2.967 2.9126,0 7.9335,-3.2527 11.4137,-11.7567l1.428 -3.4819c1.5409,-3.5951 3.4263,-4.109 5.2505,-4.109l5.5931 0 -6.6762 16.4373c-0.685,1.6532 -0.2859,2.9104 1.4257,2.9104 3.14,0 8.618,-4.1114 12.2156,-12.6707l6.048 -14.4976c1.2571,-2.9081 3.2552,-4.3384 5.9923,-4.3384l5.0796 0 -11.5851 28.31c-1.0273,2.5117 -0.455,4.7373 1.3696,4.7373 4.5682,0 8.8482,-7.6478 8.8482,-12.2134 0,-2.7395 -1.0295,-4.28 -2.8565,-5.3656l2.2282 -3.3093c3.6513,0.2864 8.6743,3.7666 14.4971,3.7666 6.4497,0 9.1887,-4.5663 15.8673,-4.5663 3.7091,0 6.3919,1.0861 7.644,3.2527 7.1385,-0.5699 12.1039,-2.509 15.6961,-6.5072z"/>
 </g>
</svg>
